<svg xmlns="http://www.w3.org/2000/svg" xmlns:xlink="http://www.w3.org/1999/xlink" width="500" zoomAndPan="magnify" viewBox="0 0 375 262.499992" height="350" preserveAspectRatio="xMidYMid meet" version="1.0"><defs><g/><clipPath id="7d6a740481"><path d="M 3 44 L 374.640625 44 L 374.640625 261 L 3 261 Z M 3 44 " clip-rule="nonzero"/></clipPath><clipPath id="3484a887b6"><path d="M 64 3.90625 L 310 3.90625 L 310 221 L 64 221 Z M 64 3.90625 " clip-rule="nonzero"/></clipPath></defs><g fill="#000000" fill-opacity="1"><g transform="translate(185.394628, 18.77673)"><g><path d="M 2.09375 0.078125 C 1.800781 0.078125 1.566406 -0.00390625 1.390625 -0.171875 C 1.222656 -0.335938 1.140625 -0.554688 1.140625 -0.828125 C 1.140625 -1.097656 1.222656 -1.320312 1.390625 -1.5 C 1.566406 -1.675781 1.800781 -1.765625 2.09375 -1.765625 C 2.394531 -1.765625 2.628906 -1.679688 2.796875 -1.515625 C 2.972656 -1.347656 3.0625 -1.125 3.0625 -0.84375 C 3.0625 -0.570312 2.972656 -0.347656 2.796875 -0.171875 C 2.628906 -0.00390625 2.394531 0.078125 2.09375 0.078125 Z M 2.09375 0.078125 "/></g></g></g><path stroke-linecap="butt" transform="matrix(0.0477166, 0, 0, 0.0477354, -9.503285, 3.911575)" fill-opacity="1" fill="#2b4866" fill-rule="evenodd" stroke-linejoin="miter" d="M 5339.205824 1035.791425 C 5290.906363 1037.182558 5298.355941 1025.071519 5296.964262 979.000473 C 5264.710046 988.574741 5294.017176 979.655124 5268.885084 1008.868914 C 5267.16595 1010.832866 5264.628182 1010.50554 5257.587922 1020.734458 C 5258.24283 1043.892728 5263.482093 1091.191245 5277.890068 1100.192692 C 5297.946624 1112.712888 5330.692021 1084.317412 5336.340602 1134.480025 C 5235.894096 1071.38806 5337.732281 1192.416616 5198.973661 1196.590014 C 5225.579296 1171.95878 5268.312039 1188.079555 5266.265452 1119.177564 C 5252.676112 1114.67684 5257.751649 1118.359251 5250.711388 1105.757224 L 5234.256826 1015.660915 C 5269.212538 1005.186503 5239.577953 981.537245 5204.212925 981.700908 C 5205.195287 980.800763 5206.91442 978.18216 5207.405601 979.164136 C 5208.142372 980.555269 5211.007595 976.218208 5213.872817 974.008761 C 5215.018906 973.108617 5219.275807 969.753532 5220.421896 968.853387 L 5226.889112 963.616181 C 5183.174007 965.907458 5160.825274 1006.413973 5144.780029 1038.901016 C 5134.628956 1059.522515 5137.576042 1084.071918 5143.142759 1094.873655 C 5146.417299 1101.2565 5157.059553 1108.621321 5163.690496 1114.267683 C 5186.939728 1134.070868 5175.396975 1107.639345 5179.817604 1139.06258 C 5156.240918 1133.498049 5167.374353 1129.570144 5142.160397 1119.259395 L 5006.021409 1071.060734 C 4952.318958 1064.432395 5038.275625 1105.51173 5012.488625 1132.516073 C 4993.823749 1152.073764 5008.559178 1105.920886 4926.777549 1142.826822 L 4919.000517 1146.754727 C 4900.744958 1134.234531 4909.749942 1150.764462 4906.720993 1123.923782 C 4876.022183 1139.799062 4842.867469 1146.263738 4826.49477 1155.428849 C 4794.649872 1173.18625 4800.052862 1190.86182 4752.080855 1192.252953 C 4755.273532 1151.419113 4758.793662 1197.735653 4768.37169 1156.983644 C 4748.315135 1147.082052 4740.94742 1140.453713 4709.921157 1141.353858 C 4723.34677 1165.003116 4728.176716 1191.761965 4723.756087 1216.311368 C 4689.537147 1214.511079 4696.741135 1202.563702 4666.942823 1224.98549 C 4634.770471 1249.207568 4649.096582 1243.397543 4655.563798 1264.755523 C 4592.610772 1266.637644 4629.203753 1244.625013 4585.652375 1255.263087 C 4590.318594 1296.587916 4594.657359 1262.218752 4615.614413 1289.141263 L 4580.904293 1290.205071 C 4570.507629 1275.639092 4564.449731 1263.446222 4553.070705 1247.816435 C 4538.335276 1227.440431 4526.792524 1226.458455 4520.325308 1204.936811 C 4573.618442 1207.800908 4651.225033 1252.562653 4671.035998 1200.517919 C 4683.069931 1169.012852 4649.260309 1158.374777 4625.110579 1147.57304 C 4585.243058 1129.733807 4577.711616 1133.661712 4524.091029 1135.216507 C 4520.489035 1103.220452 4510.829143 1114.185852 4489.462771 1106.16638 C 4474.89107 1100.68368 4485.697051 1106.16638 4475.218524 1097.246764 C 4442.718717 1069.342276 4491.018178 1105.920886 4466.540994 1088.245316 C 4451.396247 1077.279916 4464.166952 1084.481075 4450.98693 1081.862472 C 4424.299431 1076.543434 4433.058825 1100.929174 4429.293104 1068.3603 L 4400.313428 1069.178613 L 4400.804609 1086.608689 C 4387.70645 1078.09823 4393.600622 1085.872207 4388.688812 1069.505939 C 4365.603307 1072.124542 4377.964695 1072.124542 4364.866536 1075.561458 C 4321.315158 1087.181509 4304.369415 1065.168878 4314.356761 1106.575537 C 4267.530843 1107.96667 4290.861939 1116.804455 4250.257646 1096.837607 C 4245.837018 1108.457658 4250.093919 1117.950094 4242.153161 1125.151252 C 4223.570148 1142.09034 4248.538513 1114.67684 4230.855999 1130.797615 C 4219.886291 1140.86287 4224.225056 1124.005613 4222.833376 1149.864318 C 4203.595456 1145.363594 4214.23771 1140.208219 4193.362519 1133.334386 C 4164.382843 1179.487264 4164.055389 1153.05574 4142.689017 1187.097579 C 4165.856385 1180.960228 4171.914284 1171.140467 4200.157189 1167.949044 C 4188.614436 1184.72447 4174.370189 1183.824325 4149.974868 1227.767756 C 4122.878052 1276.621068 4118.293696 1262.70974 4116.247109 1278.257695 C 4116.165246 1278.666851 4116.574563 1280.303478 4116.4927 1280.712635 C 4116.247109 1284.395045 4120.831465 1278.339526 4116.165246 1288.32295 C 4107.815169 1306.325845 4098.892049 1292.250854 4058.451483 1327.520163 C 4016.046194 1364.50793 4038.640518 1318.273221 4000.082813 1396.422154 C 3999.755359 1397.240467 3998.936724 1399.040757 3998.199953 1400.268227 C 4008.187299 1425.717775 4002.620581 1395.603841 4016.864829 1440.365585 L 4023.250182 1463.360193 C 4101.839134 1460.987084 4071.140325 1462.951036 4115.10102 1431.609632 C 4121.486373 1452.885781 4156.442084 1509.349407 4158.570535 1528.98893 C 4139.823795 1510.249552 4151.120957 1522.606085 4117.884379 1524.324543 C 4125.907001 1505.503334 4127.216817 1521.542277 4104.868084 1478.335328 C 4058.697074 1504.521358 4070.976598 1510.085889 4073.023185 1577.924073 C 4047.727366 1592.244558 4025.296769 1608.283501 3986.902791 1609.42914 C 3994.761686 1624.64977 3992.387645 1615.484659 3993.533734 1638.315604 C 3972.658543 1640.606882 3966.109464 1646.335076 3947.526451 1651.244956 L 3941.87787 1657.218644 C 3938.275876 1675.303371 3935.001337 1674.157732 3931.317479 1692.32429 C 3900.86426 1692.569784 3909.050609 1687.005253 3884.655289 1682.095372 C 3888.093555 1695.188387 3889.485235 1695.270219 3891.286232 1710.900005 C 3857.7222 1711.881981 3841.595092 1696.988677 3833.81806 1730.048539 C 3881.462612 1739.622807 3907.331476 1813.434678 3894.724498 1826.855018 C 3881.135159 1841.257335 3798.289304 1831.437573 3790.430409 1831.601236 C 3775.203799 1831.928561 3778.150885 1835.529141 3755.802151 1836.756611 C 3756.620786 1866.870545 3756.293332 1900.012239 3758.258056 1929.717016 C 3762.433094 1990.84503 3815.235047 2004.510864 3866.154139 1980.370618 C 3926.733124 1951.565985 3890.222006 1949.765695 3933.118476 1947.556249 C 3929.9258 1918.99711 3922.476222 1902.303516 3950.227946 1884.791609 C 3985.511111 1862.451652 3995.08914 1884.87344 3993.615597 1835.529141 C 4057.878439 1833.64702 4016.373648 1859.096567 4085.712026 1809.588605 C 4124.760912 1828.81897 4118.048106 1842.730299 4151.039093 1865.888569 C 4173.715281 1881.763849 4207.852357 1897.475467 4216.857341 1927.589401 C 4192.21643 1941.582561 4196.391468 1939.782272 4159.225443 1940.92791 C 4171.996147 1983.643871 4218.330884 1973.414954 4244.199748 1925.216293 C 4260.65431 1894.693202 4245.837018 1904.103806 4274.079923 1902.712673 C 4265.729846 1890.847128 4257.461634 1883.482308 4245.837018 1872.844233 C 4223.815738 1852.631891 4225.862326 1861.878833 4206.133224 1849.276806 C 4194.09929 1841.58466 4191.315932 1831.601236 4176.74423 1820.308511 C 4155.950903 1804.024074 4154.641087 1812.616365 4160.371531 1784.220889 C 4183.293309 1788.803444 4191.888976 1800.096169 4207.606767 1811.798051 C 4255.824364 1847.722011 4271.951472 1847.312854 4289.306532 1880.618211 C 4291.680574 1885.282597 4300.439967 1905.249445 4301.013012 1909.668337 L 4292.499208 1936.918175 C 4324.671561 1957.130516 4318.695526 1928.980534 4328.191691 1964.904494 C 4359.054228 1963.267867 4391.799625 1936.590849 4396.547707 1922.270364 C 4361.837587 1907.458891 4386.232907 1946.41061 4349.312472 1894.61137 C 4383.94073 1893.629394 4375.836244 1900.994215 4377.719104 1876.362981 C 4406.862507 1876.199318 4393.928076 1870.798449 4407.435552 1886.755561 C 4407.681142 1887.001055 4421.188619 1913.841736 4422.825889 1918.260628 C 4431.9946 1943.055525 4438.543679 1966.377458 4444.929032 1990.435873 C 4462.365955 1976.85187 4454.425197 1993.872789 4455.816876 1966.868446 C 4516.805178 1996.900549 4501.987886 1942.973694 4549.141257 1981.598088 C 4578.448388 1964.904494 4556.017791 1966.950277 4583.360197 1963.104204 C 4593.756861 1977.670183 4599.077988 1979.30681 4595.475994 2007.620455 C 4585.488648 2087.242352 4525.400845 2069.812276 4518.278721 2070.794252 L 4507.47274 2076.276952 C 4465.558632 2099.435222 4348.493837 2049.35444 4301.586056 2046.817668 C 4302.486555 2078.322735 4311.164085 2092.725052 4283.412361 2091.252087 C 4241.007072 2088.878979 4228.154503 2085.196568 4205.314589 2071.203408 C 4176.826093 2053.855164 4175.598141 2070.71242 4127.298681 2040.352992 C 4127.216817 2025.705182 4130.409493 2016.621903 4130.000176 2010.484552 C 4128.608496 1990.354042 4126.8075 2005.901997 4119.849103 1982.580064 C 4156.278357 1978.406665 4123.369233 1955.821215 4084.238483 1965.395482 C 4046.335686 1974.642424 4029.717397 1972.432977 3985.838565 1974.642424 C 3942.614641 1976.85187 3939.99501 1987.980933 3911.752105 2000.582959 C 3877.205711 2015.885421 3851.746165 2002.792406 3818.673314 2003.0379 C 3806.557517 2027.750965 3815.889955 2016.785565 3799.680983 2030.205906 C 3784.208783 2042.971595 3784.208783 2014.985276 3785.600463 2062.038298 C 3713.151272 2064.165913 3776.022434 2113.837538 3717.735627 2155.898848 C 3699.398205 2169.073695 3702.0997 2166.045935 3688.755951 2184.948975 C 3658.302732 2228.319587 3607.547366 2291.575215 3607.792957 2328.399319 L 3642.584941 2327.417343 L 3634.807909 2410.394325 C 3625.229881 2496.480898 3698.907024 2523.730735 3747.042758 2569.310793 C 3761.041415 2582.567471 3760.140917 2589.19581 3773.81212 2600.81586 C 3805.575155 2627.983866 3822.520898 2600.16121 3859.359469 2599.261065 C 3911.915832 2598.033595 3897.09854 2618.736924 3948.508813 2587.477351 C 3968.319778 2575.448144 4023.905089 2572.093059 4044.78028 2582.321977 C 4080.390899 2599.670222 4056.077442 2611.044778 4126.725636 2608.998995 C 4127.216817 2624.956107 4129.508995 2651.633124 4127.871725 2666.444597 C 4125.41582 2688.702723 4117.065744 2690.830338 4112.399525 2713.824945 C 4184.439398 2749.339748 4224.306919 2872.004931 4200.566506 2943.443693 C 4177.481001 3012.67301 4175.10696 2995.733922 4209.244037 3071.427914 C 4228.154503 3113.24373 4233.23004 3155.468703 4256.069954 3195.156905 C 4267.44898 3215.041921 4277.845643 3224.534357 4288.733488 3244.173879 C 4313.701853 3289.426612 4280.710866 3390.897477 4420.615574 3342.535153 C 4478.329336 3322.650137 4534.242102 3280.343333 4562.812461 3228.38043 C 4577.875343 3200.803267 4567.560543 3196.466206 4566.496318 3158.823788 C 4609.802105 3147.3674 4630.186115 3126.091251 4612.421737 3086.40305 C 4572.226762 2996.061247 4703.699531 3029.12111 4710.412338 2922.413038 C 4713.768741 2869.631822 4694.940138 2839.599719 4682.415023 2802.366458 C 4642.629366 2683.220023 4883.389897 2623.97413 4882.161945 2453.273949 C 4713.52315 2458.265661 4804.719081 2477.414195 4703.290214 2403.847818 C 4636.325877 2355.24 4616.842366 2277.991212 4583.605788 2195.996206 C 4576.729254 2179.057118 4564.613458 2156.880825 4559.537921 2137.814122 L 4582.295972 2130.694795 C 4600.224077 2156.144342 4611.684966 2176.68401 4625.192442 2205.652305 C 4685.034655 2333.227369 4682.169433 2286.174346 4721.463909 2342.637973 C 4751.835265 2386.254079 4716.388373 2475.532074 4845.896418 2396.482997 C 4859.158304 2388.381694 4870.291739 2384.781115 4884.535986 2376.59798 C 4944.787517 2341.410503 4964.598482 2345.174745 4995.461019 2312.114882 L 5050.063968 2245.258675 L 5001.518917 2198.287484 C 4988.175168 2190.922663 5003.319914 2205.243148 4991.04039 2192.477459 C 4973.849057 2174.556395 4996.688971 2183.066854 4972.375514 2166.291429 C 4957.558222 2176.847672 4957.067041 2172.592442 4955.839088 2195.750712 L 4903.61018 2197.305508 C 4913.67939 2190.513507 4920.392196 2195.177893 4926.286368 2179.220781 C 4874.30305 2168.746369 4837.710069 2154.18039 4830.997262 2095.016329 C 4881.834491 2094.689004 4900.09005 2150.088823 4970.574517 2152.95292 C 4991.777162 2153.771234 4972.29365 2144.524292 4993.987476 2160.89056 C 5049.900241 2202.951871 5181.700464 2158.681114 5212.890455 2224.719008 C 5223.532709 2247.304459 5197.909436 2224.064357 5224.678798 2245.013181 C 5259.061465 2271.935693 5274.861119 2252.214339 5282.310697 2250.004893 C 5301.957935 2324.225921 5273.551303 2274.636127 5319.476722 2383.88097 C 5336.013148 2423.160015 5340.188186 2480.76928 5382.266021 2490.752704 C 5429.091939 2476.759544 5432.284615 2415.958856 5430.483618 2355.812819 C 5456.598072 2352.866891 5462.737834 2336.746116 5477.309536 2321.11633 C 5524.954088 2269.971741 5556.63526 2224.473514 5635.38794 2222.182236 L 5672.144648 2290.838733 C 5679.676089 2301.067651 5676.729004 2293.048179 5679.184908 2302.131458 C 5687.043804 2330.445103 5670.916696 2366.778219 5731.168226 2323.734933 C 5798.705607 2418.331965 5757.937588 2420.214086 5758.67436 2468.167253 C 5759.16554 2504.173044 5805.09096 2513.829143 5826.211741 2593.614702 C 5789.61876 2570.701926 5757.364544 2543.206595 5708.410175 2533.305002 C 5711.275397 2559.081875 5764.650394 2596.969787 5794.77616 2644.922954 C 5815.40576 2677.819154 5855.355144 2734.528275 5894.40403 2742.465915 L 5903.572741 2734.119118 C 5920.027303 2714.397764 5906.437964 2702.941376 5933.616643 2694.840073 C 5930.915148 2671.027153 5925.34843 2664.480645 5903.818332 2662.434862 C 5877.949468 2660.061753 5866.570443 2639.276592 5850.115881 2616.118321 C 5867.880259 2619.718901 5864.278265 2622.582998 5879.095557 2615.300008 C 5865.751808 2497.299211 5811.230722 2513.338155 5794.203115 2466.12147 C 5785.689312 2442.39038 5786.753537 2420.377749 5791.419757 2397.383142 C 5816.469985 2398.692443 5855.846325 2432.243294 5871.89157 2449.509707 C 5885.235319 2463.830192 5880.405373 2462.275397 5881.060281 2487.561282 L 5892.684897 2487.233956 C 5896.696208 2470.3767 5903.982059 2468.57641 5916.589037 2459.002143 C 5929.196014 2449.427876 5937.955408 2443.699682 5948.024618 2432.325125 C 6001.808932 2371.524437 5922.319481 2335.76414 5910.776729 2281.919117 C 5901.526154 2239.039493 5927.804335 2230.856359 5966.36204 2229.71072 C 5959.158053 2265.471017 5926.576383 2283.719406 5968.2449 2293.457336 C 5994.768672 2274.554296 5981.506786 2274.22697 5992.14904 2242.803735 C 6003.937383 2207.77992 6066.972272 2224.309851 6139.667054 2150.743474 C 6157.513295 2132.658747 6180.762527 2108.273007 6186.247381 2081.186832 C 6191.895962 2052.955019 6183.955203 2059.992514 6180.926254 2050.336416 C 6176.996806 2037.407064 6182.972841 2015.721758 6169.956546 1996.082236 C 6155.384844 1974.315098 6145.233771 1974.069604 6143.432774 1940.191428 C 6165.535917 1924.397979 6182.48166 1928.653209 6188.621422 1898.211949 C 6160.787835 1884.546115 6166.600143 1882.173006 6142.204822 1899.603082 C 6127.38753 1878.817921 6125.99585 1889.046839 6112.406511 1871.4531 C 6124.686035 1853.532036 6153.501984 1846.330878 6175.277673 1840.602684 C 6169.301638 1852.713723 6167.582505 1854.595843 6164.553555 1869.980136 C 6248.545499 1822.272463 6234.546842 1862.206158 6234.792432 1891.092622 C 6257.550483 1890.92896 6248.299908 1889.12867 6263.935835 1896.002503 C 6264.75447 1923.497834 6268.847645 1946.328779 6260.170115 1965.722807 C 6295.371417 1964.740831 6325.742772 1955.166564 6332.619306 1926.2801 C 6342.934106 1883.482308 6305.604353 1893.956719 6302.984721 1842.648467 C 6328.280541 1835.038153 6319.521147 1830.128272 6327.625633 1803.860411 C 6341.378699 1759.262329 6383.865852 1778.492694 6413.909754 1761.308112 C 6421.359332 1756.971051 6443.298748 1738.64083 6449.356646 1732.667142 C 6461.144989 1720.801598 6466.875433 1710.163523 6477.272097 1696.906846 C 6487.095716 1684.304819 6495.118338 1674.566889 6502.731643 1659.018934 C 6519.186205 1625.30442 6510.836129 1590.362437 6538.587853 1568.758962 L 6542.353573 1696.334026 C 6563.965535 1705.08998 6526.144602 1697.725159 6550.130605 1695.35205 C 6572.724929 1693.224435 6573.134247 1708.281402 6579.519599 1692.815278 C 6584.185818 1681.604384 6566.257713 1659.591753 6563.801809 1637.660953 C 6578.946555 1629.886976 6569.859707 1632.178253 6592.617758 1631.032614 C 6580.747551 1586.025376 6571.415113 1537.744883 6559.544907 1492.737645 L 6547.920291 1493.146801 C 6548.820789 1522.27876 6543.499662 1519.251 6543.663389 1545.43703 C 6525.899011 1533.162328 6526.963237 1520.723964 6510.836129 1507.794612 C 6485.867764 1487.909596 6482.920678 1508.203769 6467.284751 1512.868155 L 6437.650167 1490.61003 C 6452.221868 1460.987084 6502.240462 1404.441626 6531.056411 1387.01155 C 6558.808135 1370.236124 6573.543564 1371.299932 6614.147856 1369.499642 C 6645.747165 1368.026678 6667.031673 1356.815784 6694.61967 1349.532794 C 6738.907819 1379.974054 6674.23566 1370.072462 6787.862188 1364.180605 C 6771.816943 1341.676986 6773.781667 1333.984839 6796.294127 1310.171919 C 6814.63155 1290.696059 6824.618896 1287.668299 6860.966286 1286.604492 C 6864.404553 1299.697507 6865.878096 1299.779338 6867.597229 1315.409124 C 6914.177557 1313.036016 6909.838791 1265.573837 6953.062715 1260.663956 C 6906.891706 1334.230333 6908.119658 1324.492404 6837.14401 1382.510826 C 6777.874841 1430.954981 6795.311765 1506.239816 6811.193283 1566.549516 C 6880.04048 1558.775539 6844.266134 1490.119042 6913.195195 1482.345064 C 6906.154934 1455.91354 6906.564252 1468.433736 6911.967242 1441.756718 C 6913.604512 1441.838549 6926.375217 1443.06602 6926.620807 1443.06602 C 6935.462065 1442.656863 6928.421804 1444.457152 6935.134611 1441.102067 C 6933.497341 1385.047597 6927.275715 1406.651072 6915.89669 1377.846439 L 6938.081696 1336.685274 C 7003.3269 1334.230333 6962.968198 1348.387156 7000.789132 1328.502139 C 7010.12157 1323.510427 6993.093963 1327.601995 7013.88729 1322.855777 C 7043.767465 1316.145607 7040.411062 1332.675538 7065.543154 1338.649226 C 7067.507878 1303.379917 7101.890545 1291.105216 7127.595682 1278.748683 C 7156.657221 1264.837354 7183.180993 1253.871955 7225.504419 1252.644484 C 7220.265155 1206.08245 7206.348361 1210.419511 7176.386323 1197.244665 C 7167.708793 1193.398592 7170.737742 1194.789725 7165.662206 1190.616326 L 7229.433866 1188.734205 C 7243.268796 1166.721574 7245.888428 1180.796565 7245.642838 1147.654871 C 7272.821517 1174.659214 7268.646479 1156.0835 7302.537965 1170.976804 C 7327.670057 1181.942204 7325.541606 1190.86182 7362.953223 1190.616326 C 7371.467026 1177.032323 7373.67734 1178.587119 7373.513613 1155.428849 L 7419.930213 1154.119547 C 7418.620397 1129.32465 7417.064991 1125.314915 7396.926572 1118.686576 C 7388.985813 1116.067973 7355.258054 1110.585273 7343.142257 1109.930622 C 7337.739267 1124.251107 7339.376537 1114.758671 7343.879029 1133.170724 C 7314.817489 1113.122045 7347.317295 1117.295443 7322.267067 1096.264788 L 7201.927733 1038.573691 C 7172.538739 1028.75393 7138.974707 1020.979952 7096.733145 1024.089543 C 7008.72989 1030.636051 7094.932148 1059.277021 7022.646684 1061.404636 C 7033.370802 1044.220054 7034.107573 1053.303333 7039.18311 1031.945352 C 6989.49197 1033.418316 6964.605468 1055.430948 6900.342626 1047.575139 L 6893.711683 1052.566851 C 6886.262106 1055.103622 6898.132312 1062.713937 6885.689061 1051.175718 C 6857.200566 1024.744194 6859.820197 993.075464 6800.551029 997.985345 C 6767.723768 1000.685779 6752.98834 1013.615131 6718.933127 1001.013105 C 6651.805063 976.136376 6693.555444 977.691172 6665.885584 967.462254 C 6643.373123 957.47883 6629.783783 972.044809 6602.359513 975.1544 C 6608.171821 947.168081 6606.043371 965.98929 6601.786469 957.806156 C 6573.461701 957.969818 6562.410129 948.559214 6537.278037 947.986394 C 6502.89537 947.168081 6502.322326 959.93377 6468.512703 961.73406 C 6476.780916 989.556717 6478.581913 968.116905 6486.931989 996.021393 C 6470.559291 988.738403 6475.4711 990.538693 6451.976278 991.193343 C 6447.637513 1000.603948 6445.672789 980.718932 6452.467459 1008.62342 C 6429.545681 997.330694 6430.446179 991.275175 6393.935062 992.093488 C 6359.634258 992.993633 6349.073868 996.185055 6342.688515 1023.434893 C 6313.790702 1021.880097 6312.153432 1004.531852 6289.477245 990.211367 C 6306.095534 907.970868 6273.677591 947.08625 6229.798759 934.32056 C 6218.010416 930.965475 6209.987794 926.464751 6194.679321 923.35516 C 6188.539559 937.184657 6190.258692 944.631309 6184.11893 958.542638 C 6164.144238 959.115457 6143.923955 957.887987 6127.469393 952.896275 C 6110.114333 947.577238 6101.764257 935.54803 6086.292057 930.228993 C 6064.925685 922.946003 6054.610885 933.09309 6032.098425 934.32056 C 5985.436234 936.7755 6015.070818 921.227545 5980.19697 929.738005 C 5995.259853 907.725374 6000.58098 925.400944 5993.376993 907.970868 C 5987.564685 893.895877 5984.535735 902.488168 5967.917446 906.90706 C 5977.086158 892.177418 5987.892139 886.858381 6001.808932 876.874957 L 6000.744707 842.096637 C 5938.446589 802.981255 5931.89751 831.376731 5888.018678 818.201884 C 5881.469598 816.237932 5885.7265 810.673401 5848.969792 811.81904 L 5854.7821 788.66077 C 5777.421099 790.624722 5803.69928 808.218461 5746.476699 833.504346 C 5701.288051 853.471193 5708.410175 860.917845 5675.501051 852.489217 C 5628.756997 840.705504 5632.031537 861.163339 5587.497797 875.23833 C 5564.985336 882.357657 5497.120501 898.314769 5498.51218 917.545135 C 5498.757771 921.554871 5515.867241 947.986394 5464.129513 949.950347 C 5418.613412 951.586973 5475.099221 934.729717 5383.330246 958.951794 C 5386.768513 989.229391 5411.573151 996.021393 5425.653672 1015.742746 C 5393.72691 1014.024288 5413.456012 1008.62342 5385.540561 998.558164 C 5373.261037 994.05744 5352.385846 994.712091 5332.247427 995.284911 C 5329.791522 1001.258599 5323.078716 992.502645 5337.650417 1007.150455 C 5338.223462 1007.805106 5340.270049 1009.27807 5340.843094 1009.769058 C 5341.416138 1010.260046 5343.217135 1011.405685 5344.363224 1012.387661 L 5315.711001 1024.826025 C 5331.756246 1028.017448 5328.80916 1027.199134 5339.205824 1035.709594 L 5339.287687 1035.709594 Z M 2170.843073 1216.311368 C 2152.996831 1242.251904 2170.515619 1206.900764 2137.279041 1257.88169 C 2136.460406 1231.859323 2132.039777 1245.034169 2128.519647 1210.092186 C 2125.981879 1184.806301 2119.514663 1183.006011 2094.300707 1177.932468 L 2070.478431 1200.59975 L 2096.920339 1229.077058 C 2068.595571 1249.534893 2066.46712 1253.135472 2026.517735 1244.052193 C 1999.830237 1237.996674 1975.434916 1227.849587 1944.981697 1228.749732 C 1949.402325 1220.157441 1947.601329 1222.53055 1950.22096 1211.155993 L 2013.992621 1209.273873 C 2024.553012 1185.460952 2012.027897 1187.424904 2042.153662 1179.405432 C 2015.548027 1142.172171 2020.951018 1185.297289 1963.400983 1101.583825 C 1954.150408 1088.163485 1948.665554 1083.826424 1940.315478 1072.206373 L 1934.421306 1066.56001 L 1928.445271 1060.995479 L 1905.68722 1068.114806 C 1906.260265 1095.610137 1908.224989 1095.691968 1918.376062 1113.44937 C 1873.433004 1111.076261 1909.289214 1084.890231 1865.001065 1074.415819 C 1861.808388 1081.698809 1862.872614 1073.352012 1863.445658 1083.089942 C 1863.445658 1083.171773 1865.492246 1095.691968 1865.655973 1097.574089 L 1848.300912 1098.146909 C 1844.207738 1068.769457 1853.785766 1084.8084 1819.484963 1080.798664 C 1786.985156 1077.116254 1807.205439 1080.144013 1783.465026 1065.168878 C 1748.427451 1083.335436 1714.126648 1089.390955 1704.221165 1131.370434 C 1734.919975 1137.589616 1720.26641 1137.998773 1750.555902 1129.979301 C 1742.860734 1153.383065 1735.73861 1136.853134 1728.207169 1159.684079 C 1768.238416 1158.53844 1794.10728 1155.919837 1826.934541 1162.630007 L 1814.327563 1167.621719 C 1813.017747 1168.030876 1811.21675 1168.521864 1809.743207 1168.93102 L 1740.568556 1182.515023 C 1748.427451 1208.864716 1751.701991 1201.581726 1778.062036 1208.373728 C 1824.724226 1220.484767 1831.355169 1245.279664 1881.210036 1224.98549 C 1906.751446 1214.59291 1902.085227 1212.547126 1938.678208 1211.483319 L 1931.474221 1215.984043 C 1929.34577 1217.129682 1920.095195 1222.039562 1920.013332 1222.039562 C 1905.277903 1228.913395 1913.627979 1226.049298 1898.565097 1230.059034 C 1908.96176 1238.569493 1906.014674 1237.75118 1922.141782 1240.942602 C 1914.855932 1257.308871 1916.656928 1252.39899 1917.3937 1275.884586 C 1884.238985 1239.960626 1835.857661 1249.289399 1788.94988 1250.680532 C 1801.884312 1231.941155 1807.614756 1244.215856 1799.837725 1231.613829 C 1789.441061 1214.674741 1724.195857 1202.072714 1703.893711 1197.326497 C 1649.700079 1184.806301 1651.58294 1208.864716 1607.622244 1193.071267 L 1578.560704 1198.881292 L 1561.942415 1180.714734 C 1544.341764 1165.985092 1566.28118 1172.695262 1537.137777 1171.140467 C 1528.378383 1197.735653 1517.408675 1185.706446 1507.585056 1185.870108 C 1488.592726 1186.033771 1476.886247 1190.616326 1461.168456 1195.280713 C 1353.763554 1227.194937 1382.988821 1209.846692 1280.986909 1197.653822 C 1226.465823 1191.189146 1080.83067 1180.796565 1033.759162 1166.557912 C 998.885314 1156.001668 934.049428 1184.560807 912.028148 1207.391752 L 906.625158 1213.610934 C 905.233478 1215.165729 902.204529 1219.093634 898.520672 1222.857876 C 881.001884 1240.77894 865.447821 1248.389255 837.450506 1249.780387 C 841.216227 1283.249407 885.258786 1310.171919 914.811507 1317.127583 L 915.384551 1334.475827 C 888.369599 1334.721321 886.568602 1334.63949 879.855796 1312.381365 C 857.588926 1324.983392 833.439195 1330.711586 811.172325 1343.395444 C 816.165998 1360.089038 839.660821 1383.574633 854.559976 1387.338875 C 879.446478 1393.558057 916.039459 1379.319403 933.885701 1374.573185 C 934.131291 1408.533193 925.944942 1408.36953 898.929989 1414.834206 C 858.080107 1424.735799 875.107713 1422.199027 848.829532 1440.938405 C 849.73003 1469.661206 852.840843 1483.408872 866.512046 1500.020634 C 884.849469 1522.196928 894.01818 1515.404927 920.460088 1508.449263 C 922.261085 1524.324543 923.07972 1522.524254 924.635126 1532.589509 C 924.96258 1534.226136 925.535624 1538.645028 925.781215 1540.036161 C 926.927304 1546.828162 924.471399 1542.982089 927.500348 1548.792115 L 989.471012 1538.15404 C 1027.373809 1527.352303 1000.686311 1574.078 981.202799 1588.152991 C 954.105983 1607.710682 876.335665 1621.049191 866.921364 1660.819223 C 954.924618 1658.20062 1022.134546 1579.233374 1083.941482 1544.209559 C 1075.91886 1513.7683 1074.117863 1520.396639 1095.156781 1498.54767 C 1110.219664 1482.836052 1113.248613 1475.962219 1139.936111 1472.93446 L 1121.189372 1489.055234 C 1108.336803 1504.685021 1112.102524 1494.86526 1112.266251 1520.151145 C 1134.04194 1517.696204 1132.977714 1513.850131 1152.297499 1507.139961 C 1185.288486 1495.683573 1180.867858 1510.986034 1180.622267 1477.517015 C 1216.887794 1477.271521 1220.980969 1492.737645 1255.199909 1500.102466 C 1338.864398 1518.269024 1294.903703 1483.408872 1400.753199 1548.955777 C 1432.516234 1568.677131 1435.790773 1559.430189 1464.279269 1589.216798 C 1488.183409 1614.175358 1490.639313 1608.119838 1510.695869 1641.588858 C 1562.269869 1727.67543 1644.051498 1733.976444 1659.933016 1794.122481 C 1618.100771 1767.85462 1612.2066 1727.184442 1553.510476 1727.67543 C 1571.520444 1787.821468 1642.004911 1741.423096 1624.076806 1878.654258 C 1614.908095 1949.356539 1652.237848 2026.687158 1681.790568 2064.00225 C 1705.0398 2093.21604 1721.739953 2093.543365 1750.555902 2110.564284 C 1781.336575 2128.812674 1807.69662 2187.403915 1819.157509 2223.082381 C 1833.565483 2267.844126 1888.250297 2274.79979 1901.9215 2326.59903 C 1942.034611 2295.339457 1827.753176 2195.750712 1815.473652 2149.27051 C 1848.792093 2157.126319 1868.357468 2191.577314 1887.022344 2216.781368 L 1982.475176 2331.181585 C 2010.799945 2364.896098 1981.738405 2346.320384 1998.192967 2373.815715 C 2018.085796 2407.03924 2100.358606 2431.097655 2141.044761 2443.863344 C 2183.368187 2457.038191 2162.902314 2446.154622 2195.811438 2445.909128 C 2231.094603 2445.581803 2216.113584 2476.023062 2295.275581 2489.27974 C 2338.417642 2496.480898 2340.873547 2529.377098 2368.13409 2555.399465 C 2393.839226 2579.867037 2433.870474 2585.267905 2467.025189 2599.997547 C 2468.908049 2564.319081 2480.696392 2576.020963 2507.056436 2581.421832 C 2508.448116 2626.838227 2532.352256 2656.297511 2500.834811 2693.858097 L 2490.02883 2706.21463 C 2478.649805 2718.162006 2471.200227 2728.554587 2453.599576 2733.791793 C 2454.090757 2751.058206 2452.28976 2750.894543 2458.265795 2765.542354 C 2460.148655 2769.961246 2463.832512 2774.380139 2463.832512 2774.380139 C 2471.609544 2787.964142 2470.872773 2766.278836 2466.534008 2779.862839 C 2453.435849 2826.83403 2416.679141 2819.060052 2477.83117 2863.576303 C 2528.668399 2900.56407 2502.062763 2977.076375 2593.176831 3028.139133 C 2682.162447 3077.974421 2666.853974 3141.721038 2654.083269 3232.799322 C 2648.434688 3273.4695 2635.090939 3311.030086 2634.436031 3355.219011 C 2633.617396 3410.700662 2622.729551 3420.111266 2613.888294 3471.092193 C 2608.239713 3503.906562 2592.68565 3558.324405 2600.626408 3588.192845 C 2617.654015 3583.119302 2609.958847 3585.574242 2623.466323 3575.918144 C 2624.284958 3603.658969 2620.273647 3600.140221 2619.045694 3622.480178 C 2606.029399 3626.980902 2627.477634 3628.781191 2613.806431 3620.025237 C 2598.08864 3609.959982 2629.524221 3621.825527 2601.281316 3611.432946 C 2601.772497 3615.606345 2604.801447 3628.863022 2604.801447 3629.763167 C 2605.047037 3649.566352 2605.128901 3634.345722 2601.445043 3638.764615 L 2579.669354 3664.295994 C 2597.351869 3675.343225 2608.894621 3680.4986 2621.256009 3697.846845 C 2598.170504 3699.074315 2599.889637 3701.120098 2586.791478 3710.448871 C 2588.183158 3737.453215 2596.45137 3762.657268 2606.438716 3781.969465 C 2615.19811 3798.744891 2608.567167 3787.043008 2624.694275 3801.281662 C 2655.229358 3828.367837 2655.147494 3854.14471 2701.891549 3863.800808 C 2724.240282 3868.301532 2761.160717 3866.583074 2782.527089 3855.535843 C 2768.200978 3837.041959 2746.589016 3834.587019 2732.426631 3819.039064 C 2722.029968 3807.746338 2710.978396 3773.459006 2709.914171 3753.246664 C 2712.124485 3750.709892 2715.644615 3748.582277 2719.410336 3745.309024 C 2725.877552 3739.662661 2723.421647 3742.690421 2728.660911 3737.125889 L 2771.475517 3675.997876 C 2746.097835 3640.483073 2737.829622 3679.762118 2735.291854 3630.663312 C 2751.173371 3622.398346 2746.343425 3624.525961 2769.920111 3623.789479 C 2779.006959 3578.536746 2776.960371 3591.138773 2797.016927 3559.142718 C 2781.954044 3549.732114 2778.597641 3549.813945 2772.94906 3530.910905 C 2820.184295 3530.501748 2825.669149 3547.522668 2823.786289 3482.957738 C 2884.201547 3481.157448 2916.537626 3477.229544 2926.606836 3427.721581 C 2919.894029 3405.381625 2909.661093 3406.609095 2896.399207 3388.03338 C 2926.197518 3387.133235 2936.921636 3398.344129 2962.053728 3388.278874 C 3003.885973 3371.421617 2999.13789 3320.849847 3017.065995 3314.876159 C 3028.363157 3311.030086 3041.870633 3330.833271 3060.617373 3272.24203 C 3076.2533 3223.634212 3067.002725 3194.25676 3112.027646 3168.561718 C 3166.876186 3137.302145 3183.576339 3156.287017 3215.175647 3113.652887 C 3241.371964 3078.301747 3237.360653 3037.958895 3244.155323 2988.696426 C 3253.078444 2923.558677 3275.099723 2935.015065 3302.196539 2891.235297 C 3313.821155 2872.414088 3316.931968 2854.656686 3311.528978 2834.526176 C 3301.623495 2797.702072 3297.448457 2810.467761 3268.959961 2795.492625 C 3246.938682 2783.954406 3242.763644 2775.934934 3215.01192 2768.97927 C 3194.791637 2763.905727 3166.95805 2764.969534 3139.124462 2765.787848 C 3128.236618 2729.3729 3077.89057 2728.390924 3057.097243 2739.192661 C 3053.904567 2711.042679 3049.238347 2716.770873 3021.486624 2711.206342 C 3027.708249 2680.355926 3030.327881 2700.404605 3018.13022 2673.400262 C 2993.325582 2618.818756 3000.202115 2627.411047 2920.876391 2608.671669 C 2856.204232 2593.369208 2853.748327 2566.283034 2811.588629 2540.997149 C 2801.191965 2534.696135 2800.045876 2513.66548 2763.534759 2529.622592 C 2699.681234 2557.52708 2709.750444 2507.037141 2649.990094 2507.446298 C 2640.657656 2535.759943 2649.498913 2503.354731 2634.026713 2526.267507 C 2628.378132 2534.777967 2627.477634 2531.832038 2628.132542 2554.581152 L 2622.320234 2554.744814 C 2621.256009 2517.266059 2623.957504 2518.575361 2638.038025 2496.235404 C 2576.722269 2499.426826 2542.912646 2547.952813 2512.54129 2569.556287 C 2492.812189 2524.63088 2398.751036 2590.259617 2407.428566 2504.909526 C 2416.18796 2419.723098 2390.974004 2433.961752 2305.508518 2436.416692 C 2317.296861 2417.677315 2329.985702 2397.87413 2332.605334 2370.787955 C 2336.862236 2326.517199 2316.80568 2322.098306 2285.206372 2338.382743 C 2257.454648 2360.068049 2275.54648 2414.158567 2202.360517 2396.728491 C 2119.023482 2376.761643 2099.29438 2156.962656 2219.06067 2181.021071 C 2250.168797 2187.322084 2248.695254 2188.631386 2286.598051 2187.485747 C 2286.352461 2164.736633 2284.551464 2173.983575 2291.509861 2158.353789 C 2395.55836 2155.326029 2383.85188 2162.854513 2415.205598 2224.473514 C 2426.830214 2247.222627 2423.801265 2256.633232 2451.143671 2258.106196 C 2469.64482 2216.372211 2421.918404 2134.868193 2465.060465 2096.571125 C 2501.244129 2064.411407 2553.145583 2067.439167 2512.786881 1989.372065 C 2528.504672 1990.27221 2528.668399 1991.663343 2541.930284 1994.281946 C 2545.777868 1922.843184 2597.024415 1924.234316 2626.658999 1916.378507 C 2625.431047 1873.90804 2627.068317 1869.079991 2653.837679 1851.813578 C 2671.192739 1840.520852 2695.096879 1828.000657 2722.684876 1826.527693 C 2700.99105 1846.494541 2701.973412 1835.201815 2700.499869 1861.960664 C 2718.10052 1861.06052 2758.622949 1846.494541 2771.721108 1838.884226 C 2791.6958 1827.264175 2812.816581 1809.834099 2814.290124 1783.238912 C 2775.732419 1810.734244 2770.329428 1818.508221 2727.432958 1791.585709 C 2727.269231 1765.317848 2729.561409 1775.383103 2732.590358 1762.37192 C 2740.858571 1725.711478 2732.426631 1763.353896 2731.526133 1733.485456 C 2674.712869 1721.947236 2657.521536 1758.280353 2622.811415 1783.07525 C 2627.968815 1761.062618 2689.284571 1700.180099 2739.712482 1706.481113 C 2795.052203 1713.273114 2846.871794 1684.550313 2891.814851 1659.100765 C 2891.159943 1636.187989 2889.277083 1635.61517 2884.774591 1618.676082 C 2841.059486 1609.838297 2853.748327 1618.757913 2815.272486 1620.721865 C 2836.720721 1600.91868 2843.597254 1615.320997 2860.788588 1590.362437 C 2836.556994 1589.053135 2802.256191 1576.287446 2788.093806 1559.430189 C 2769.347067 1537.090233 2783.755041 1554.520309 2780.398638 1534.880786 C 2776.878508 1514.259288 2739.385028 1456.813685 2717.363749 1449.530696 C 2707.376403 1469.9067 2701.809685 1483.654366 2689.939479 1502.557406 C 2645.569466 1503.866707 2667.099564 1494.128778 2631.407082 1486.927619 C 2630.506583 1456.159034 2632.471307 1448.466888 2616.917243 1430.545824 C 2589.001793 1398.222444 2519.172233 1373.100221 2466.697735 1410.497145 C 2468.662458 1478.335328 2491.338646 1434.882885 2463.505058 1497.647525 C 2481.842481 1509.103913 2501.817173 1520.47847 2499.852449 1553.947489 C 2498.215179 1582.670291 2480.287074 1595.108655 2449.01522 1596.745282 C 2459.166293 1635.124182 2501.080402 1687.987229 2428.549347 1690.114844 C 2409.147699 1655.991174 2403.990299 1645.107605 2402.434893 1592.244558 C 2316.150772 1592.899209 2288.480911 1543.391246 2209.646368 1545.764355 C 2193.028079 1513.604637 2208.254689 1523.015242 2176.737244 1496.911043 C 2153.488012 1477.680678 2179.848057 1430.054836 2192.536898 1416.961821 C 2213.002771 1395.849335 2245.420714 1400.022733 2227.49261 1365.326244 L 2256.963467 1356.815784 C 2267.933175 1355.015494 2292.164769 1362.707641 2301.497207 1316.718426 C 2273.008711 1317.618571 2277.265613 1319.99168 2260.565461 1306.325845 L 2312.712505 1304.77105 C 2323.84594 1278.748683 2299.205029 1290.205071 2323.60035 1281.285454 C 2324.992029 1328.011151 2320.571401 1328.829465 2302.725159 1357.306772 C 2331.049928 1375.146005 2326.056255 1384.638441 2363.549734 1369.581474 C 2405.627569 1352.724217 2389.336734 1384.720272 2424.6199 1359.516218 C 2411.849195 1341.676986 2370.999312 1314.999968 2347.75008 1309.599099 C 2393.675499 1263.282559 2403.744709 1294.951289 2400.633896 1236.360047 C 2399.160353 1207.555414 2401.452531 1232.759468 2408.410928 1203.300185 L 2380.741068 1178.832613 C 2368.707134 1171.222298 2377.466528 1178.505288 2366.824274 1169.749334 C 2395.722087 1168.93102 2407.428566 1178.750782 2435.753335 1172.695262 C 2476.685081 1163.939309 2441.156325 1143.31781 2538.0827 1209.273873 C 2558.794164 1223.430695 2565.834424 1228.58607 2566.816786 1262.546077 C 2544.468053 1269.174416 2538.819472 1276.375574 2538.983199 1303.952736 C 2513.851106 1304.689219 2444.758319 1301.906953 2466.943325 1337.830912 C 2483.889068 1365.408075 2512.705017 1319.746186 2545.859732 1331.857224 C 2571.073688 1341.104166 2578.277675 1367.863015 2605.128901 1383.329139 C 2629.933539 1397.567793 2665.298568 1397.322299 2692.968428 1409.678832 C 2689.857615 1381.774344 2682.981082 1389.875647 2668.573107 1369.745136 C 2694.278244 1374.900511 2693.295882 1384.065621 2721.293196 1385.620417 C 2722.193695 1369.908799 2723.585374 1369.745136 2726.286869 1356.488459 C 2711.633304 1335.948792 2666.117202 1305.671195 2658.995079 1289.059432 C 2638.938523 1242.333735 2720.065244 1307.062327 2724.89519 1310.090087 C 2752.155733 1302.888929 2768.528432 1282.594756 2781.462863 1261.973257 C 2765.253892 1239.224144 2680.934495 1205.182305 2663.661298 1201.663558 C 2666.444656 1167.212562 2693.459609 1194.298737 2659.48626 1157.883789 L 2651.29991 1149.536992 C 2621.665326 1118.113756 2618.636377 1137.016797 2591.867015 1119.586721 L 2507.629481 1073.761169 C 2480.287074 1068.769457 2439.600919 1086.854183 2416.761004 1092.909703 L 2415.696779 1058.131382 C 2408.902109 1053.466996 2395.722087 1016.888385 2343.493178 1046.347669 C 2307.882559 1066.478179 2329.00334 1090.782088 2336.289191 1118.441082 C 2301.169753 1110.257948 2307.227651 1077.852736 2320.898854 1053.303333 C 2334.324467 1029.408581 2325.23762 1057.313069 2333.751423 1031.536196 C 2274.072937 1033.336485 2241.654994 1055.676442 2243.374127 1115.413322 C 2261.302232 1124.251107 2266.705222 1122.041661 2278.821019 1137.589616 C 2243.783445 1139.389906 2261.711549 1134.316362 2255.981105 1149.864318 C 2273.827346 1153.464897 2282.259286 1157.965621 2301.006026 1162.057188 C 2330.722474 1168.603695 2337.926461 1157.720126 2333.997013 1182.842349 C 2325.810664 1234.805252 2312.630642 1253.299135 2282.095559 1247.734604 C 2283.323511 1225.149153 2286.843642 1232.513974 2286.679915 1206.982595 C 2162.738587 1181.942204 2222.5808 1146.181907 2167.895987 1111.894574 C 2166.504308 1111.485418 2099.703698 1116.47713 2134.086365 1172.286106 C 2157.41746 1210.092186 2112.146949 1217.947995 2170.924936 1216.229537 Z M 2967.947899 699.628268 C 2940.032448 692.99993 2942.160899 678.024794 2903.439467 678.270288 C 2911.625817 694.2274 2909.579229 689.317519 2910.234137 712.884946 L 2898.691385 713.212271 C 2897.381569 669.84166 2897.463432 658.221609 2829.353007 687.353567 C 2799.309105 700.201088 2813.225899 683.671156 2805.612594 704.374486 C 2783.01827 703.147016 2790.304121 699.628268 2764.844574 699.791931 C 2747.489514 738.74365 2767.218616 719.431453 2671.192739 757.974016 C 2649.826367 766.566307 2650.563139 763.129391 2645.487602 784.487371 L 2691.904203 783.17807 L 2692.722838 812.146365 C 2649.007733 834.731816 2567.635421 815.419619 2555.110307 868.364498 C 2592.440059 886.77655 2611.514253 884.157947 2665.789748 882.603151 C 2647.861644 908.70735 2657.84899 884.485272 2590.966516 902.160842 L 2591.457697 919.590918 C 2602.509269 921.800365 2601.526907 920.736557 2609.549529 924.337136 L 2616.917243 928.510535 C 2631.079628 937.511982 2631.734536 946.186105 2662.105891 952.323456 C 2662.433345 951.586973 2662.842663 949.377527 2663.00639 949.950347 L 2664.807387 944.794972 C 2666.280929 939.721429 2663.088253 946.022442 2667.345155 934.729717 C 2785.965356 931.2928 2844.579616 944.958635 2873.96861 1061.731961 C 2886.084407 1110.176116 2858.578273 1094.955486 2917.438125 1105.839055 C 2942.897671 1110.585273 2945.271712 1112.303731 2957.387509 1129.242819 C 2926.770563 1127.606192 2920.794528 1118.686576 2893.452121 1125.314915 L 2894.761937 1171.713286 C 2963.199817 1175.395697 2921.531299 1160.175067 2952.066382 1146.836558 C 2958.533598 1159.356753 2962.872363 1169.340177 2964.91895 1187.097579 C 2947.482026 1191.680134 2945.517302 1191.025483 2932.828461 1201.990883 L 2907.941959 1223.594358 C 2912.771905 1241.842747 2918.093032 1251.662508 2925.951928 1264.673692 C 2940.032448 1288.159287 2932.33728 1285.949841 2955.995829 1280.221647 C 2947.482026 1293.80565 2945.271712 1292.169023 2945.435439 1315.327293 C 2960.662049 1321.791969 2956.896328 1319.091535 2974.496979 1314.50898 C 2956.24142 1355.506483 2984.975506 1391.266779 3007.56983 1410.906302 C 3034.093601 1434.064572 3072.815033 1441.838549 3111.945783 1449.694358 C 3134.130789 1414.261387 3131.593021 1405.259939 3126.763075 1362.216653 C 3161.636923 1358.288748 3150.749078 1336.276117 3163.68351 1306.898665 C 3171.051224 1290.205071 3171.542405 1291.759866 3186.687151 1282.594756 C 3208.46284 1269.41991 3205.433891 1261.236775 3211.328063 1278.503189 C 3249.967631 1277.35755 3248.330361 1266.39215 3269.696733 1243.397543 C 3285.741977 1226.294792 3301.377904 1213.201777 3313.248111 1194.298737 C 3358.764213 1216.638693 3367.687333 1194.462399 3406.326902 1180.551071 C 3446.194423 1166.148755 3478.284912 1161.648031 3485.488899 1131.12494 C 3455.690588 1146.591064 3446.931194 1132.35241 3421.471648 1127.278867 L 3420.980467 1109.848791 C 3426.792775 1109.685128 3439.072299 1108.621321 3444.229699 1109.112309 C 3461.994077 1110.748936 3439.890934 1106.902862 3454.135181 1110.585273 C 3455.608724 1110.912598 3457.000404 1111.485418 3458.392083 1111.976406 C 3482.623677 1120.650528 3460.520534 1125.233083 3496.867925 1124.987589 C 3516.105845 1085.954039 3494.166429 1093.237028 3471.817696 1061.895624 L 3494.985064 1061.240973 C 3494.330156 1037.673546 3496.376744 1042.501596 3488.190394 1026.626315 C 3519.953429 1025.644339 3514.959756 1029.163087 3528.221642 1007.968769 C 3517.251934 993.893778 3511.52149 999.049152 3498.750785 991.438838 C 3528.385369 990.538693 3543.939433 990.129536 3556.218957 972.372135 C 3535.753084 967.544085 3543.120798 970.571845 3532.478544 955.596709 C 3548.360061 932.602102 3541.647255 955.02389 3549.178696 931.947451 C 3514.304849 894.059539 3517.170071 925.237281 3507.428315 892.586575 C 3523.064242 890.786286 3523.146106 889.395153 3536.244264 885.876405 C 3537.30849 887.513032 3539.928122 891.440936 3540.419303 892.422912 L 3554.581687 920.163738 C 3555.809639 897.823781 3559.82095 901.342529 3559.002315 873.683535 C 3543.448252 866.727871 3552.698826 868.52816 3529.858912 868.691823 C 3531.005001 867.628016 3533.051588 864.763919 3533.542769 865.827726 L 3539.682531 860.099532 C 3544.021296 853.471193 3558.920452 858.053748 3538.208988 847.906662 C 3523.309833 840.623672 3505.954772 849.297795 3494.575747 852.325554 C 3496.376744 819.593017 3523.555423 797.662217 3543.775706 780.313973 L 3590.437897 741.116759 C 3593.221255 730.887841 3601.325741 743.244374 3577.994646 728.023744 C 3609.757681 726.387118 3607.38364 715.912706 3658.466459 702.410534 L 3657.729687 679.252264 C 3528.221642 672.2966 3502.189052 720.577092 3456.018042 725.814298 C 3469.198064 704.865474 3476.565778 712.557621 3478.039321 684.571301 C 3463.631347 678.188457 3452.579775 674.178721 3431.295267 674.342383 C 3429.49427 697.991642 3425.401096 697.091497 3397.240054 698.564461 L 3425.564823 685.225952 C 3413.121572 669.759828 3426.547185 675.651685 3396.830737 674.587877 C 3384.305622 674.178721 3369.897648 676.142673 3358.273032 678.679445 C 3331.912987 684.48947 3315.294698 694.554725 3286.96993 696.027689 C 3323.644774 662.149513 3450.778778 656.421319 3494.575747 655.112018 C 3486.962442 629.498807 3486.716852 639.318569 3454.298908 638.091098 C 3436.534531 637.436448 3424.009416 634.654182 3403.789134 631.871916 C 3353.852403 624.998084 3333.632121 636.618134 3291.063104 637.845604 C 3317.586876 618.206082 3374.64573 623.770613 3418.197108 622.461312 L 3417.869654 610.923093 C 3338.625794 594.884149 3375.055048 600.939669 3284.186571 603.230946 C 3154.269208 606.586031 3191.680824 627.534855 3169.086501 635.636158 C 3136.750421 647.33804 3146.410313 608.95914 3030.000427 639.727725 C 3021.568487 660.512886 3031.555833 621.642998 3030.900925 647.419872 C 3030.573471 660.922043 3039.087274 641.118858 3030.08229 652.82074 C 3016.49295 670.332648 3034.502919 632.11741 3013.300274 663.376983 C 3030.573471 685.635109 3043.42604 674.669709 3060.699236 696.846003 C 3023.123893 697.091497 3012.481639 682.607349 2980.636741 673.442239 C 2919.648439 655.766669 2953.212471 679.00677 2967.947899 699.546437 Z M 6513.046443 3258.085207 C 6513.537624 3276.497259 6506.579227 3260.130991 6513.946942 3278.052055 C 6516.812164 3285.08955 6512.227808 3274.778801 6519.75925 3286.726177 L 6528.68237 3300.964831 C 6529.501005 3301.946807 6530.565231 3303.256109 6531.465729 3304.156253 C 6555.451732 3328.869319 6538.424126 3292.618034 6558.398818 3335.579489 C 6571.660704 3364.056796 6628.719558 3390.979308 6637.642679 3353.009565 L 6655.079603 3352.518577 C 6664.493904 3384.187307 6695.192714 3367.411882 6730.230289 3344.499106 C 6761.010962 3324.368595 6759.128102 3308.738809 6770.752718 3269.950752 C 6782.950378 3229.6079 6833.86947 3161.933379 6791.300454 3082.393314 C 6790.563683 3080.838518 6755.607971 3030.512242 6737.352413 3020.119662 C 6709.764416 3004.408044 6727.856248 3006.61749 6710.501187 2988.778257 C 6699.695206 2977.649195 6687.333819 2979.367653 6674.317523 2967.420277 C 6644.109895 2939.761283 6663.020361 2911.202144 6622.579796 2872.823244 C 6590.734898 2842.545648 6617.74985 2836.162803 6586.969177 2814.968485 C 6566.585167 2860.875868 6577.145558 2882.31568 6567.240075 2931.578149 C 6516.48471 2944.998489 6515.747938 2909.483686 6473.506376 2899.500262 C 6473.260786 2870.204641 6483.739313 2858.748253 6494.954611 2840.827189 C 6464.91071 2834.77167 6427.171639 2820.287522 6395.736058 2820.533016 C 6405.232223 2859.648398 6385.666849 2832.153067 6356.932763 2872.659582 C 6354.558722 2875.932835 6357.587671 2894.754044 6322.713823 2886.980067 C 6288.740474 2879.287921 6303.721493 2870.531967 6265.573105 2906.70142 C 6250.837677 2920.69458 6242.815054 2918.648797 6254.19408 2940.743259 C 6226.033038 2931.414486 6258.860299 2939.106632 6230.699257 2929.859691 C 6222.349181 2943.198199 6212.034381 2957.600516 6203.029397 2971.348181 C 6172.739905 3017.746553 6152.274032 3003.753393 6112.079057 3020.937975 C 6078.269434 3035.340292 6097.179901 3044.832727 6065.662456 3039.104533 C 6064.352641 3062.917454 6060.996237 3051.379235 6061.323691 3074.537505 C 6061.651145 3097.532112 6065.74432 3092.458569 6064.598231 3107.924693 C 6063.124688 3129.200842 6047.652488 3111.197947 6074.913031 3160.705909 C 6123.785536 3249.574748 6106.103022 3238.609348 6096.197539 3287.708153 C 6127.960574 3289.426612 6117.563911 3305.056398 6148.917628 3303.665265 C 6177.32426 3302.437795 6174.950219 3283.452924 6201.2284 3279.279525 C 6242.4876 3272.651186 6223.085953 3296.218613 6254.275943 3273.714994 C 6269.66628 3262.667763 6283.173756 3246.628819 6298.891547 3243.764722 C 6322.468233 3239.427661 6316.819652 3247.201639 6350.54741 3234.599612 C 6455.496408 3195.402399 6440.269798 3256.039424 6490.69771 3287.708153 L 6498.720332 3278.297549 C 6499.37524 3277.479236 6500.521329 3276.006271 6501.176237 3275.024295 L 6513.046443 3258.003376 Z M 2296.667261 760.0198 C 2301.087889 774.994935 2308.37374 778.268189 2330.64061 776.140574 C 2336.862236 775.485923 2371.163039 768.202934 2380.249887 765.502499 C 2427.321395 751.754834 2416.18796 735.470397 2459.166293 761.001776 C 2437.472468 763.456716 2375.747394 773.685634 2361.093829 781.295949 C 2375.17435 799.380675 2370.917448 785.714841 2384.997969 803.799568 C 2355.527112 797.82588 2329.248931 782.932576 2297.322169 783.17807 L 2303.789385 806.254508 L 2309.76542 811.81904 C 2337.353416 818.365547 2345.703493 836.450274 2385.980331 838.577889 C 2370.917448 860.59052 2380.413614 848.643144 2354.79034 842.669456 C 2336.452918 838.496057 2324.582712 840.378178 2304.85361 840.950998 C 2294.047629 858.13558 2293.310858 849.134132 2288.317184 870.492113 C 2322.863578 885.876405 2310.584054 859.035725 2329.576385 892.422912 C 2300.269254 890.868117 2301.169753 881.703007 2265.47727 882.766814 C 2276.283251 923.92798 2258.764464 901.260698 2249.432026 929.656174 C 2292.983404 956.987842 2324.992029 943.322008 2385.571014 939.80326 C 2415.860506 938.084802 2415.860506 956.169529 2441.483779 941.930875 C 2447.214223 938.739453 2459.166293 928.756029 2459.575611 920.491063 C 2460.066792 910.507639 2470.463455 920.409232 2448.851493 909.771157 L 2440.255827 906.579735 C 2463.341331 899.705902 2456.955979 904.533951 2456.710389 877.120451 C 2473.574268 884.567104 2473.328678 888.00402 2486.75429 872.210571 C 2502.472081 853.798519 2474.392903 854.289507 2514.014833 852.243723 C 2512.131973 835.550129 2513.278062 838.168732 2495.759275 823.766416 C 2501.080402 823.602753 2514.669741 823.930078 2519.09037 823.193596 C 2546.350913 818.611041 2526.048767 822.702608 2539.47438 814.192149 C 2556.583849 803.30858 2546.842094 804.863375 2582.207123 803.799568 C 2587.610113 789.479083 2585.972843 798.971519 2581.552215 780.559467 C 2611.268662 779.086502 2683.144809 740.54394 2692.06793 732.6063 C 2702.055276 723.604852 2696.979739 733.015456 2701.564095 719.022297 L 2649.253323 714.767067 C 2690.758114 713.539597 2756.003317 717.631164 2764.27153 682.361855 C 2737.747758 648.238185 2668.491244 670.905467 2620.519237 655.439343 C 2563.378519 636.94546 2583.107621 653.475391 2553.800491 658.87626 C 2519.827141 665.259104 2520.236459 646.028739 2473.410541 662.149513 C 2434.689109 675.488022 2423.064493 647.501703 2369.935087 677.20648 C 2338.581369 694.718388 2379.840569 681.379879 2326.219982 688.090049 L 2196.875663 722.29555 C 2202.524244 741.116759 2197.530571 730.315022 2211.938546 742.262398 C 2242.146175 767.220958 2263.021365 768.857585 2296.667261 760.0198 Z M 6396.882147 2663.907826 C 6401.384639 2703.923353 6413.336709 2680.274094 6451.648824 2695.167399 C 6480.792227 2706.460124 6495.85511 2709.487884 6514.84744 2730.027551 C 6506.4155 2772.00703 6498.556605 2734.446443 6498.802195 2776.998742 C 6517.876389 2771.925199 6524.671059 2764.151221 6541.207485 2768.079125 C 6576.73624 2776.589585 6573.052383 2802.448289 6613.247358 2772.088861 C 6625.117564 2763.169245 6623.725885 2763.251076 6637.478952 2755.477099 L 6657.289917 2770.288572 C 6699.449616 2810.549592 6695.356441 2786.00019 6737.51614 2804.739567 C 6730.803333 2782.317779 6716.640949 2772.743512 6690.117177 2771.270548 C 6687.088228 2744.511699 6677.346473 2755.067942 6683.076917 2736.08307 L 6686.597047 2728.800081 C 6686.924501 2727.981767 6688.316181 2726.34514 6688.725498 2724.954008 C 6623.234704 2683.792842 6664.739495 2694.758242 6565.930259 2663.907826 C 6527.863735 2651.96045 6530.237777 2652.287775 6487.996214 2659.652596 C 6458.770948 2664.644308 6426.844186 2663.007681 6396.882147 2663.907826 Z M 5966.034586 2612.845068 C 5968.326764 2693.367109 6044.050494 2692.630627 6090.467095 2701.9594 C 6096.279403 2692.630627 6099.96326 2690.830338 6104.875069 2681.747059 C 6125.913987 2643.286327 6096.197539 2652.696932 6151.700987 2613.172393 C 6139.994508 2596.806125 6099.144625 2554.417489 6155.221117 2537.560232 C 6149.981854 2520.048325 6124.11299 2502.290923 6107.658428 2498.363019 C 6091.695047 2509.737576 6085.227831 2526.840326 6041.430863 2565.546551 C 6032.753333 2573.238698 6015.80759 2588.132002 6003.118748 2591.487087 C 5984.535735 2596.396968 5965.134088 2583.467616 5965.952723 2612.763236 L 5965.952723 2612.845068 Z M 6528.191189 1807.133665 C 6493.562932 1862.451652 6509.93563 1857.214446 6484.885402 1879.39074 L 6463.355303 1896.002503 C 6444.77229 1900.503227 6465.1563 1866.54322 6438.878119 1925.789112 C 6389.841887 1927.262076 6327.953087 1943.382851 6325.006001 1998.864501 L 6348.173369 1998.128019 C 6334.993347 2024.9687 6334.82962 2019.813325 6360.862211 2032.579015 C 6363.318115 1986.753462 6379.445223 2024.39588 6364.709795 1968.668736 L 6387.549709 1961.467577 C 6375.925093 1981.1071 6378.380998 1966.541121 6376.989319 1991.49968 C 6414.237208 1987.326282 6401.793957 1974.39693 6432.983947 1970.1417 C 6495.200202 1961.713071 6418.821563 1962.449554 6490.042802 1945.919622 C 6520.905338 1938.718464 6524.91665 1935.690704 6532.448091 1901.32154 C 6543.008481 1853.368373 6558.808135 1819.490197 6533.348589 1783.811732 C 6578.37351 1782.50243 6664.16645 1754.597942 6676.036657 1704.189835 C 6625.445018 1717.610175 6630.929872 1751.488351 6542.762891 1708.11774 C 6542.844754 1724.320345 6541.862393 1731.112347 6538.424126 1743.959868 C 6530.892685 1772.7645 6528.846097 1761.308112 6525.325967 1764.172209 C 6510.508675 1776.856068 6496.919335 1799.768844 6528.273053 1807.133665 Z M 4776.80363 3013.491323 C 4778.031583 3056.452778 4734.480205 3153.995739 4809.876481 3151.704461 C 4848.188596 3150.640654 4846.960643 3130.182818 4850.480773 3094.177027 C 4855.146993 3046.060198 4854.328358 3051.215572 4887.483072 3027.566314 C 4885.763939 2969.547892 4906.229812 2919.958098 4866.116701 2894.754044 C 4843.849831 2912.102289 4858.503396 2938.861138 4815.688789 2954.327262 C 4758.548071 2974.948761 4775.493814 2970.611699 4776.80363 3013.409492 L 4776.721767 3013.409492 Z M 4935.291352 914.271881 C 4935.618806 956.987842 4929.39718 927.283065 4904.019498 952.896275 C 4898.043463 958.869963 4898.862098 953.632757 4900.253777 966.480278 C 4900.253777 966.889435 4900.744958 968.607893 4900.826821 968.935218 C 4903.773907 983.583029 4854.901402 991.766163 4852.118043 1044.383716 L 4886.910028 1043.319909 C 4890.348294 1056.412924 4891.739974 1056.494755 4893.540971 1072.124542 C 4918.509336 1073.433843 4929.642771 1076.87076 4963.288666 1075.888783 C 4957.230768 1022.452917 4889.447796 1037.018896 4972.702968 955.105721 C 5038.521216 890.377129 5079.289235 894.796021 5149.773702 868.446329 C 5169.830258 860.999677 5175.396975 861.981653 5176.706791 837.43225 C 5146.581026 821.720632 5129.880873 842.587625 5102.62033 852.161892 C 5073.06761 862.636304 5018.300933 864.109268 4980.48 883.585127 C 4944.62379 902.079011 4970.574517 910.262145 4935.291352 914.271881 Z M 4155.050404 821.229644 L 4143.180198 838.250563 L 4161.435757 838.414226 L 4150.302322 845.451722 C 4162.254392 861.81799 4184.766852 871.965077 4203.349865 883.585127 C 4221.196106 855.189651 4247.638015 848.070325 4247.310561 801.099134 L 4270.559792 800.362652 C 4277.927507 819.102029 4263.110215 804.863375 4288.406034 817.30174 C 4283.330497 838.987046 4282.757453 824.912055 4277.681916 846.59736 C 4317.14012 836.20478 4284.885904 844.387914 4315.011669 848.233987 C 4339.079536 851.343578 4329.583371 841.769311 4358.64491 838.414226 C 4348.248247 803.472243 4270.805383 790.461059 4243.79043 762.965728 C 4231.34718 750.363701 4238.059986 772.21267 4234.048675 743.489868 C 4181.328586 745.044664 4202.776821 758.301341 4180.346224 756.910208 L 4139.823795 749.381725 C 4119.439785 747.25411 4103.885722 756.99204 4089.55961 765.093343 C 4103.230814 782.523419 4086.121344 774.585779 4113.136296 776.058743 C 4113.381887 815.665113 4118.37556 794.879952 4090.296382 788.333444 C 4100.201864 821.638801 4110.107347 812.146365 4125.17023 814.355811 C 4126.152592 814.519474 4127.789861 814.764968 4128.772223 814.928631 C 4129.836449 815.092293 4131.473719 815.50145 4132.619808 815.746944 C 4146.618465 818.692872 4125.579547 819.593017 4155.050404 821.229644 Z M 3941.87787 1657.218644 L 3947.526451 1651.244956 C 3951.619626 1630.705289 3952.765714 1632.014591 3951.94708 1604.682922 C 3939.340102 1599.936704 3944.170048 1607.301525 3931.80866 1600.509523 C 3931.071889 1600.100367 3929.598346 1599.200222 3928.861575 1598.709234 L 3868.364454 1525.96117 C 3875.159124 1497.074706 3879.006708 1521.787772 3878.761117 1484.963667 C 3863.616371 1478.580822 3867.300228 1481.199425 3849.781441 1485.863812 C 3852.646663 1473.834605 3873.030673 1441.593055 3837.420053 1461.559903 L 3816.462999 1482.590558 C 3815.562501 1483.490703 3814.252685 1484.472679 3813.352187 1485.372824 C 3772.911621 1521.378615 3818.918904 1487.745933 3793.377495 1539.790667 C 3810.896282 1547.564645 3809.259012 1541.018137 3825.058666 1553.947489 C 3849.945168 1574.405325 3856.33052 1578.005904 3859.032016 1601.655162 L 3824.567485 1609.347309 L 3842.331863 1625.386252 C 3821.620399 1631.523602 3826.777799 1626.286397 3825.549847 1649.03551 C 3829.888612 1648.953679 3838.811733 1648.217196 3842.741181 1648.790016 L 3860.505558 1653.863559 C 3841.922546 1659.42809 3829.888612 1669.575177 3820.801765 1684.059325 C 3851.009393 1682.504529 3851.009393 1673.830407 3878.679254 1670.96631 C 3920.184044 1666.629249 3910.606016 1674.976046 3941.87787 1657.218644 Z M 2304.771746 841.032829 C 2311.730143 825.403043 2309.929146 834.649984 2309.76542 811.900871 L 2303.789385 806.254508 C 2270.716534 785.469347 2294.948127 789.724577 2233.877962 766.893632 C 2210.710594 758.21951 2181.403463 742.753386 2151.032108 741.116759 C 2150.131609 753.064135 2150.868381 755.76457 2134.086365 771.885344 C 2120.415161 784.978359 2114.848444 768.775753 2112.474403 811.900871 C 2167.895987 839.150708 2165.8494 803.799568 2188.525587 832.931526 C 2170.843073 833.831671 2167.48667 836.122948 2153.979193 839.723528 C 2178.947558 874.747342 2258.600737 890.540792 2270.061626 842.096637 Z M 1602.546708 1029.9814 C 1595.670174 1064.023239 1589.93973 1095.7738 1576.35039 1123.596456 C 1607.622244 1129.979301 1613.025235 1133.825374 1629.479797 1156.819982 C 1666.318368 1130.552121 1650.354987 1162.957332 1701.928988 1106.7392 C 1745.562229 1059.113358 1756.777528 1085.463051 1765.536921 1048.393452 C 1720.348273 1028.344773 1649.372625 1023.680387 1602.546708 1029.9814 Z M 1862.053979 975.890882 C 1812.608429 973.272279 1787.230747 936.12085 1755.877029 959.851939 C 1747.445089 966.316615 1734.510658 979.245967 1734.838112 991.275175 C 1735.656746 1019.670651 1765.373194 1013.615131 1793.452372 1012.796818 C 1795.908277 1030.063231 1796.645048 1027.444628 1805.81376 1035.627763 C 1840.687607 1031.699858 1929.018316 1014.433445 1949.320462 984.89233 C 1941.870884 960.097433 1888.741477 940.294248 1878.426677 940.621574 C 1855.177446 941.276224 1867.456969 942.994682 1863.281931 954.205576 C 1860.989753 960.424759 1862.627023 960.261096 1862.217706 966.071121 C 1861.562798 975.972714 1865.737836 967.544085 1862.053979 975.890882 Z M 2280.94947 1015.824578 C 2321.881216 1014.597108 2411.27615 1010.751034 2430.841525 982.355558 C 2412.585966 921.309377 2332.932788 982.43739 2283.077921 972.044809 C 2239.117225 962.96153 2242.146175 929.901668 2185.660365 931.620126 C 2193.764851 1003.14072 2203.915924 1013.860625 2235.924549 1012.960481 C 2262.693911 1012.223999 2255.489924 1016.56106 2280.94947 1015.742746 Z M 3547.295836 1262.70974 C 3522.818652 1263.446222 3519.216658 1251.908002 3489.009029 1252.808147 C 3475.010372 1253.217304 3472.227013 1262.70974 3460.520534 1271.056537 C 3471.490242 1285.131528 3477.220686 1279.976153 3489.991391 1287.586468 C 3466.414705 1288.32295 3471.244651 1286.195335 3455.363134 1294.460301 C 3468.952474 1311.890377 3451.924867 1303.870905 3478.93982 1305.343869 C 3482.869267 1340.531347 3506.282226 1333.493851 3549.342423 1332.266381 C 3593.630573 1330.95708 3579.631916 1316.96392 3630.223554 1301.415965 C 3654.782602 1293.887481 3637.591268 1303.216254 3658.302732 1288.404781 L 3647.25116 1270.156392 C 3646.514389 1269.174416 3645.450164 1267.865114 3644.713392 1266.801307 C 3610.330725 1220.484767 3612.295449 1260.827619 3547.295836 1262.70974 Z M 5619.506422 702.574197 L 5642.673791 701.919546 C 5642.673791 702.001377 5610.173984 730.887841 5664.613207 744.390013 C 5692.528658 751.345677 5716.105343 751.018352 5736.816807 745.617483 C 5734.606493 670.087154 5738.126623 707.074921 5702.597867 693.490918 C 5702.43414 693.409086 5695.885061 688.7447 5677.138321 689.317519 C 5690.727661 667.714045 5692.692385 677.7793 5705.299362 659.449079 C 5677.956956 653.966379 5626.055502 628.680494 5589.953701 686.044265 Z M 7066.279926 3526.082856 C 7083.798713 3532.220206 7078.886903 3519.209023 7072.829005 3549.159294 L 7090.184065 3548.586475 L 7089.692884 3531.23823 C 7135.700167 3528.78329 7125.139777 3505.952345 7165.907796 3467.818939 L 7187.274168 3431.567654 C 7197.343377 3410.618831 7190.548707 3436.886692 7196.442879 3412.009963 C 7171.39265 3396.298346 7189.484482 3394.825381 7149.535098 3395.97102 C 7144.868878 3482.875907 7063.660294 3436.559366 7066.279926 3526.082856 Z M 2032.411907 1041.601451 C 2040.188939 1067.214661 2041.498755 1045.365693 2044.855158 1074.988639 C 2019.968656 1081.044158 2038.224215 1077.52541 2010.063173 1075.970615 C 2019.477475 1107.557513 2075.717694 1132.106916 2087.178583 1131.779591 C 2093.809526 1131.534097 2136.378542 1122.696312 2113.947945 1084.562906 C 2101.422831 1063.204925 2106.416504 1089.963774 2102.81451 1068.032975 C 2100.358606 1053.057839 2122.625476 1078.671049 2090.043806 1033.00916 Z M 2837.048175 1771.046042 C 2872.08575 1778.083538 2849.163972 1770.718717 2871.840159 1769.982235 C 2885.020181 1769.573078 2910.152274 1787.33048 2930.45442 1791.503878 C 2948.218798 1755.416256 2946.990845 1729.312057 2887.639813 1717.28285 C 2892.060442 1695.679375 2896.726661 1700.83475 2898.11834 1676.367178 C 2869.384254 1684.959469 2838.357991 1745.92382 2837.048175 1771.046042 Z M 7183.099129 3354.400698 L 7183.59031 3371.748943 C 7210.114082 3380.504896 7193.65952 3387.787886 7219.44652 3405.545287 C 7241.385936 3389.83367 7269.546978 3356.200988 7269.383251 3328.623825 C 7262.015536 3327.150861 7244.005568 3323.713944 7237.538352 3320.113365 C 7219.528384 3310.129941 7236.474127 3318.149413 7225.340692 3310.211773 C 7202.09146 3293.60001 7215.762663 3317.740256 7194.641882 3282.63461 C 7183.917764 3264.631715 7189.157028 3266.75933 7168.773018 3261.93128 C 7177.614275 3279.034031 7195.460517 3310.866424 7194.969336 3331.160597 C 7194.068837 3366.020749 7197.507104 3348.017853 7183.099129 3354.400698 Z M 3731.079377 1593.799353 C 3731.570558 1595.272318 3732.79851 1595.763306 3733.044101 1597.89092 C 3733.862735 1603.291789 3738.774545 1603.291789 3738.938272 1615.811985 C 3739.020135 1628.823168 3733.862735 1623.340468 3732.634783 1646.00775 C 3761.532596 1645.189437 3772.666031 1639.052086 3807.785469 1637.988279 C 3805.984472 1574.078 3807.949196 1603.128126 3817.527225 1573.832506 C 3801.072663 1563.521756 3796.815761 1551.247055 3770.455717 1552.065368 C 3743.358901 1552.801851 3775.203799 1562.376118 3731.079377 1593.799353 Z M 4257.37977 748.563411 C 4294.218342 800.28082 4347.184021 757.483028 4396.465844 744.471844 C 4386.151044 709.857186 4361.182679 725.650635 4332.203002 728.923889 C 4329.419644 704.701812 4322.461247 705.1928 4303.387053 735.552228 C 4283.330497 722.950201 4268.840659 710.593668 4239.287938 725.896129 C 4243.135522 753.473292 4231.59277 735.879553 4257.37977 748.563411 Z M 2047.884107 982.028233 L 2055.088094 1004.777346 C 2096.183568 1000.522117 2100.276742 989.14756 2099.539971 963.125193 C 2098.803199 938.248465 2064.338669 937.102826 2040.68012 935.875356 L 2041.253164 953.2236 C 2011.209262 939.885091 2013.337713 957.315167 2012.437215 959.851939 C 1994.017929 947.249912 1995.818926 933.911403 1965.201979 932.274777 C 1970.441243 979.245967 1998.192967 983.501197 2047.884107 982.028233 Z M 2371.65422 2318.579558 C 2405.218252 2335.10949 2388.518099 2327.090018 2419.544363 2324.79874 C 2447.050496 2322.752957 2526.048767 2376.025161 2569.927599 2353.276048 C 2553.391173 2332.08173 2527.604173 2326.108042 2497.06909 2317.024763 C 2436.490106 2299.103699 2398.751036 2275.290778 2371.572356 2318.497727 L 2371.572356 2318.579558 Z M 6430.773633 864.27293 C 6465.565617 886.121899 6460.24449 880.802862 6518.203843 879.084404 C 6550.621786 878.184259 6579.110282 868.937317 6580.829415 836.613937 C 6539.488351 837.841407 6545.54625 835.959286 6540.552577 849.461457 C 6534.985859 842.505793 6537.032446 856.007965 6534.249088 832.195044 L 6476.617189 840.787335 C 6458.034176 843.160444 6454.268456 816.483426 6430.773633 864.27293 Z M 2005.0695 907.889036 L 2024.389285 896.596311 C 2024.716739 896.268986 2025.617237 894.796021 2025.862827 894.468696 C 2026.108418 894.059539 2026.763326 892.422912 2026.927053 892.177418 C 2027.09078 891.850093 2027.418234 890.540792 2027.827551 889.80431 C 2044.937021 893.241226 2045.673793 895.123347 2068.513707 894.386865 C 2062.292082 839.314371 2005.724408 832.440538 1944.899833 834.240828 C 1954.969043 867.791678 1957.588675 836.695768 1962.991665 862.963629 C 1964.628935 871.146763 1946.209649 852.898374 1965.775024 872.619727 C 1982.229586 889.149659 1983.375675 869.75563 1998.02924 894.959684 C 1998.929738 896.596311 2004.742046 907.398048 2005.151364 907.889036 Z M 6098.980898 2794.592481 C 6091.449457 2769.470258 6089.402869 2779.290019 6071.556628 2765.706016 C 6034.554329 2737.637866 5976.349386 2751.794688 5906.3561 2753.840472 C 5926.412656 2779.617345 6081.789565 2795.083469 6098.980898 2794.592481 Z M 6166.682006 2728.718249 C 6185.592473 2714.070439 6183.464022 2707.851257 6182.563524 2676.100696 C 6202.047035 2697.213182 6200.573492 2719.062151 6224.641359 2726.999791 C 6232.827708 2707.933088 6215.636375 2676.34619 6205.239711 2658.015969 C 6227.834035 2655.397366 6222.922226 2660.961897 6227.915899 2639.849411 C 6219.647686 2639.440254 6151.864714 2620.209889 6144.660727 2668.572212 C 6140.158235 2699.50446 6150.473035 2667.508405 6166.682006 2728.718249 Z M 2137.442768 1066.396348 C 2138.261403 1094.54633 2138.261403 1084.399243 2150.049746 1100.847343 C 2179.356876 1097.492258 2160.528273 1095.20098 2187.706952 1079.980351 L 2195.893301 1076.379772 C 2207.190463 1070.978903 2221.680302 1072.533698 2229.37547 1034.727618 C 2196.630073 1028.099279 2135.641771 1004.531852 2137.442768 1066.396348 Z M 2739.221301 2388.872682 L 2738.893847 2377.334463 C 2710.405352 2371.524437 2705.002361 2367.923858 2668.982425 2367.760195 C 2634.845348 2367.596533 2627.232044 2359.740724 2599.071002 2358.185928 C 2564.524608 2428.397221 2648.107234 2399.183431 2739.221301 2388.872682 Z M 1629.889114 971.144664 C 1650.273124 983.992185 1663.53501 989.638548 1693.578911 969.01705 C 1717.319324 952.650781 1695.543635 956.906011 1724.687038 954.369239 C 1785.102296 949.050202 1773.805134 871.310426 1686.784241 934.647885 C 1675.159625 943.076514 1671.803222 945.940611 1658.132019 952.732612 C 1636.11074 963.616181 1642.577955 952.732612 1629.889114 971.144664 Z M 5743.857067 785.878504 C 5770.053385 785.142022 5834.807408 772.049007 5847.332522 753.800617 C 5840.865306 732.278974 5846.432024 740.871265 5826.621058 733.915601 C 5798.460017 724.09584 5810.575814 744.717338 5799.93356 720.413429 C 5763.504306 722.29555 5745.739928 751.182014 5743.857067 785.878504 Z M 6200.655356 2501.390779 C 6221.939864 2495.007934 6207.941207 2495.335259 6229.225715 2488.952414 L 6276.624677 2522.339602 C 6276.542813 2503.763888 6300.037636 2461.620746 6278.507537 2442.144886 C 6260.251978 2425.614955 6268.602054 2452.12831 6244.288597 2460.720601 C 6226.442356 2467.021615 6200.246038 2453.028455 6200.655356 2501.390779 Z M 6645.17412 3410.864325 C 6652.459971 3438.359656 6668.177761 3465.609493 6699.040298 3467.24612 C 6705.343787 3448.752236 6686.269593 3459.30848 6716.149768 3455.135081 C 6715.904178 3423.548183 6733.914146 3414.383072 6703.2972 3409.227698 C 6679.556787 3405.299793 6657.617371 3405.954444 6645.17412 3410.864325 Z M 6159.887336 2299.594687 L 6161.033425 2340.101202 L 6189.767511 2363.586797 C 6239.540515 2263.83439 6158.659384 2258.842678 6159.887336 2299.594687 Z M 4731.533119 693.900074 L 4731.942436 705.520125 C 4762.477519 711.657476 4741.929782 707.729571 4772.546729 704.292655 L 4773.03791 721.722731 C 4795.55037 722.86837 4832.716396 733.015456 4835.581618 679.252264 C 4802.099449 680.970722 4768.862871 692.754436 4731.614982 693.900074 Z M 2415.696779 1058.213213 C 2473.656132 1094.54633 2450.4069 1061.486467 2502.635808 1055.59461 L 2502.308354 1044.056391 C 2455.891754 1034.645787 2505.091713 1032.354509 2414.960007 1034.973112 Z M 4871.355964 712.966777 C 4915.889704 687.762724 4898.45278 701.837715 4949.863053 685.635109 C 4970.65638 679.088601 4976.796142 698.237136 4982.60845 677.7793 C 4991.940889 644.310281 4959.441082 700.446582 4968.200476 652.166089 C 4954.201819 653.720885 4923.093691 666.322912 4913.024482 673.360407 C 4895.505694 685.471446 4875.531002 700.36475 4871.437828 712.966777 Z M 6202.456353 2367.923858 L 6202.783806 2379.543909 C 6236.593429 2387.481549 6221.939864 2421.0324 6273.759454 2423.814665 C 6265.327515 2391.900442 6250.510223 2389.854658 6242.896918 2360.968194 C 6223.004089 2361.95017 6220.466321 2365.468918 6202.456353 2367.923858 Z M 6685.696549 850.934422 L 6639.279949 852.325554 C 6613.738539 853.062036 6611.773815 837.186756 6602.27765 847.333842 C 6587.460358 862.963629 6610.382136 868.119004 6621.188117 871.392257 C 6659.090914 882.930477 6683.731825 887.103875 6685.696549 850.934422 Z M 6158.004476 2630.356975 L 6223.167816 2613.745213 C 6250.428359 2611.535766 6247.153819 2632.893747 6267.128512 2592.305401 C 6217.846689 2593.778365 6166.027098 2596.56063 6158.004476 2630.356975 Z M 6228.243353 2454.174094 C 6237.739518 2407.121071 6192.059689 2378.889258 6173.640403 2374.552197 C 6176.587489 2400.001745 6202.783806 2448.200406 6228.243353 2454.174094 Z M 6367.329426 2647.377894 C 6383.456534 2650.569317 6385.830576 2654.824547 6397.864509 2656.87033 C 6410.553351 2659.079777 6424.306417 2657.279487 6437.240849 2656.87033 C 6430.036862 2644.186472 6427.089776 2639.685748 6419.067154 2628.393023 L 6378.462861 2629.620493 C 6378.053544 2628.80218 6378.053544 2626.101745 6377.97168 2626.838227 C 6377.97168 2627.492878 6377.644227 2624.301456 6377.4805 2623.97413 C 6371.586328 2610.144633 6381.164357 2612.763236 6354.722449 2612.926899 L 6367.329426 2647.377894 L 6367.41129 2647.377894 Z M 1807.451029 896.268986 C 1809.825071 916.808653 1802.53922 906.334241 1815.719242 917.381472 C 1832.664985 931.620126 1853.130858 919.836412 1860.334846 917.87246 L 1870.895236 882.766814 C 1833.319893 883.912453 1835.448344 888.904165 1807.451029 896.268986 Z M 5422.624723 2483.79704 C 5423.525221 2515.220276 5421.887951 2524.958205 5447.511224 2541.07898 L 5464.375104 2523.157916 C 5458.808386 2502.045429 5443.090596 2476.677713 5427.863986 2466.203301 C 5424.098266 2473.404459 5422.297269 2472.586146 5422.624723 2483.79704 Z M 2115.912669 927.774053 C 2116.567577 950.195841 2175.181838 970.24452 2174.199476 937.675645 C 2173.380841 908.952844 2115.421488 909.525663 2115.912669 927.774053 Z M 2117.959257 997.330694 C 2236.252003 1055.512779 2165.521946 921.554871 2117.959257 997.330694 Z M 2114.76658 887.185707 C 2130.402507 886.77655 2130.648098 883.912453 2143.500666 880.557368 L 2143.009485 863.127292 C 2114.684717 857.399098 2116.485714 852.325554 2078.910371 853.471193 C 2083.985907 872.619727 2091.844802 887.840357 2114.76658 887.185707 Z M 6106.839793 2469.394723 C 6148.753901 2467.185277 6168.483003 2426.678762 6168.155549 2386.33591 C 6167.336914 2387.399718 6166.027098 2387.808874 6165.699644 2389.609164 C 6165.208463 2392.145936 6161.442743 2394.928201 6160.542244 2395.992009 L 6137.94792 2425.451292 C 6122.311993 2447.300261 6119.610498 2443.290525 6106.839793 2469.394723 Z M 7206.430225 997.985345 C 7241.631527 997.003369 7252.683098 990.866018 7281.580911 989.965873 L 7281.253457 978.427654 C 7264.389578 974.417918 7253.092416 962.061385 7237.783942 966.234784 C 7237.620215 966.234784 7219.44652 976.054545 7219.364657 976.218208 C 7206.020907 986.856282 7209.704765 983.828523 7206.430225 997.985345 L 7206.430225 998.067176 Z M 6700.02266 2712.9248 C 6712.875228 2729.536563 6718.933127 2731.582346 6740.299498 2723.317381 C 6763.385003 2714.315933 6768.951721 2711.370005 6768.70613 2681.910721 C 6740.708816 2689.357373 6728.019975 2705.559979 6700.02266 2712.9248 Z M 2479.46844 1253.544629 C 2598.661685 1250.025881 2459.821201 1172.613431 2479.46844 1253.544629 Z M 6303.230312 2637.639965 C 6331.145763 2629.293168 6309.697528 2627.574709 6337.531115 2619.227912 C 6335.484528 2579.294217 6328.444267 2607.771524 6324.596683 2573.156866 C 6300.36509 2590.42328 6302.084223 2598.279089 6303.230312 2637.639965 Z M 4986.947216 697.991642 C 4961.651396 693.409086 4951.254733 698.318967 4923.339282 705.683788 C 4942.495339 732.524468 4937.992847 712.803115 4980.807454 722.541044 L 5004.711593 709.038873 C 4974.340238 707.402246 4994.396793 714.93073 4986.947216 697.991642 Z M 6174.377175 2792.301203 C 6201.473991 2791.48289 6244.206734 2796.39277 6260.825023 2772.334355 C 6241.832692 2772.907175 6221.284956 2772.661681 6202.538216 2773.725488 C 6190.013102 2774.46197 6186.820425 2772.416187 6176.996806 2778.226212 C 6164.717282 2785.42737 6169.710955 2782.317779 6174.377175 2792.301203 Z M 6238.640016 2807.767327 C 6255.258305 2814.886654 6261.479931 2808.831134 6279.899216 2801.711807 C 6302.24795 2793.037685 6301.838632 2794.674312 6313.135794 2776.589585 C 6272.367775 2777.817055 6254.19408 2783.054261 6238.640016 2807.849158 Z M 4986.947216 697.991642 C 5021.98479 699.873762 5006.348863 706.42027 5044.906568 696.273183 C 5026.651009 670.659973 5015.353847 652.82074 4994.478657 682.525518 Z M 6490.779573 921.309377 L 6490.779573 932.111114 C 6524.425469 931.129138 6535.558904 934.484223 6560.527269 935.875356 C 6546.201158 910.589471 6556.761548 920.572894 6530.728958 907.725374 Z M 6157.267705 2212.607969 L 6174.622765 2212.03515 C 6179.780165 2186.667433 6190.995464 2178.893456 6196.152864 2153.443908 C 6175.113946 2155.817017 6175.768854 2156.553499 6167.336914 2171.446804 C 6160.21479 2183.885168 6157.103978 2192.150133 6157.267705 2212.607969 Z M 7051.462633 3021.674457 C 7051.953814 3020.446987 7072.092234 3026.175181 7031.897259 2994.670114 C 7019.863325 2985.25951 7008.238709 2980.267798 6992.111601 2976.994544 C 7001.362176 2993.442644 7015.852014 3015.046119 7035.089935 3022.083614 C 7056.046989 3029.857592 7042.866967 3026.09335 7051.462633 3021.756289 Z M 1928.363408 1060.995479 L 1934.339443 1066.56001 L 1940.315478 1072.206373 C 1952.267548 1074.661313 1993.936065 1083.00811 1970.523106 1052.976007 C 1966.429932 1047.820633 1953.004319 1042.74709 1945.800332 1043.729066 C 1930.328132 1045.856681 1932.538446 1048.802609 1928.363408 1060.995479 Z M 1061.756476 1579.724362 C 1062.08393 1588.971304 1061.510886 1591.262582 1069.206054 1593.635691 C 1072.071276 1594.535835 1099.495546 1586.761858 1101.542133 1549.528597 C 1084.023346 1551.492549 1061.265295 1560.575828 1061.756476 1579.724362 Z M 5044.25166 673.114913 C 5067.500892 705.765619 5078.22501 684.898627 5108.187048 676.960986 L 5107.859594 665.422767 C 5078.4706 666.24108 5076.424013 672.132937 5044.25166 673.114913 Z M 2127.046104 910.016651 C 2156.189508 909.198338 2152.833104 904.042963 2179.029422 902.733662 L 2178.538241 885.303586 L 2149.476701 886.20373 C 2132.367231 886.694718 2129.829463 896.596311 2127.046104 910.016651 Z M 1806.959848 878.83891 L 1876.543817 876.793126 C 1870.240328 867.955341 1868.357468 859.690375 1852.803404 860.099532 L 1841.260652 860.426857 C 1820.876642 861.081508 1814.900607 866.646039 1806.959848 878.83891 Z M 2426.093442 1411.806447 C 2426.74835 1433.98274 2424.374309 1413.934061 2432.396931 1428.991029 C 2455.5643 1422.117196 2450.979944 1418.598448 2460.557973 1399.20442 L 2447.459814 1389.139164 C 2435.998925 1395.031021 2425.602261 1393.639888 2426.093442 1411.806447 Z M 4796.860186 1138.735255 L 4814.29711 1138.244267 C 4829.76931 1137.83511 4831.160989 1129.406482 4836.973297 1120.15954 C 4813.396611 1109.685128 4795.714097 1098.637897 4796.860186 1138.735255 Z M 2196.711936 913.780893 C 2221.844029 913.044411 2225.282295 915.744845 2242.96481 906.661566 C 2236.661321 897.74195 2234.696597 889.476984 2219.224397 889.967972 C 2202.114927 890.45896 2199.577159 900.360553 2196.711936 913.780893 Z M 5619.506422 702.574197 C 5594.046876 702.737859 5601.332727 699.13728 5578.738403 697.90981 C 5582.012943 726.632612 5584.878165 720.986249 5614.267159 720.086104 C 5618.360333 712.148464 5617.214244 713.621428 5619.506422 702.574197 Z M 6374.369687 2687.802578 C 6357.014626 2663.5805 6355.21363 2670.945321 6315.83729 2672.09096 C 6329.099175 2689.111879 6344.735103 2688.620891 6374.369687 2687.802578 Z M 2525.148268 2406.793746 C 2535.626795 2406.548252 2525.721313 2407.121071 2536.527294 2400.656395 C 2520.72764 2378.561933 2524.820814 2383.635476 2489.619513 2384.699283 C 2497.150954 2395.173695 2507.220163 2407.366565 2525.066405 2406.875577 L 2525.148268 2406.875577 Z M 2772.376016 1743.878036 L 2784.328086 1726.857117 C 2769.019613 1719.73779 2758.049905 1715.809886 2736.765397 1715.973548 C 2750.68219 1735.449408 2751.337098 1733.567287 2772.376016 1743.878036 Z M 7393.078988 1230.386359 C 7419.357169 1230.222696 7416.32822 1235.541734 7445.471623 1234.641589 C 7439.904905 1215.82038 7444.325534 1217.293344 7410.188458 1218.27532 C 7399.709931 1218.602646 7394.388804 1221.630405 7393.160851 1230.386359 Z M 5817.861665 2704.250678 C 5802.553192 2677.246335 5802.635055 2670.127008 5775.701966 2653.18792 C 5779.058369 2665.871778 5782.742226 2674.873226 5790.355531 2685.5113 C 5800.261014 2699.340797 5802.225738 2700.486436 5817.861665 2704.168847 Z M 2362.239918 1407.878542 C 2362.321782 1407.960373 2373.209626 1413.361242 2373.946398 1413.361242 C 2394.330407 1412.788423 2398.587309 1400.759215 2402.107439 1383.492802 C 2382.787655 1388.566345 2371.89981 1393.72172 2362.239918 1407.878542 Z M 6840.009232 2737.88336 C 6831.249839 2725.608658 6826.256166 2721.189766 6821.589946 2703.596027 L 6810.047194 2703.923353 C 6811.520737 2731.664178 6813.485461 2736.492227 6840.009232 2737.88336 Z M 6460.490081 2656.21568 C 6478.418186 2654.169896 6471.459789 2655.970186 6483.493722 2649.832835 C 6464.010211 2622.419335 6475.634827 2629.211336 6453.859138 2627.492878 C 6457.297405 2640.585893 6458.689084 2640.667724 6460.490081 2656.297511 Z M 6162.670695 2786.900334 L 6162.261378 2775.280284 L 6115.926641 2776.671416 C 6129.679708 2794.346987 6131.726295 2787.800479 6162.670695 2786.900334 Z M 2071.951974 813.04651 C 2065.975939 792.997831 2065.975939 792.015855 2042.317389 790.788384 C 2045.100748 815.746944 2046.246837 813.292004 2071.951974 813.04651 Z M 5853.636011 771.067031 C 5867.389078 773.849296 5870.909208 775.976911 5888.591722 775.813249 C 5881.551462 752.245822 5883.761776 758.628667 5853.308557 759.44698 Z M 1941.052249 898.151106 C 1938.596344 903.879301 1929.427633 898.96942 1942.689519 913.453568 C 1953.822954 925.482775 1950.548414 920.654726 1970.686833 920.491063 C 1957.997992 902.733662 1950.957732 893.404889 1941.052249 898.151106 Z M 6933.333614 1377.437282 C 6948.969541 1375.718824 6949.051404 1374.24586 6962.149563 1370.808944 L 6961.658382 1353.378868 C 6938.900331 1355.997471 6937.590515 1357.061278 6933.333614 1377.437282 Z M 5560.400981 663.704309 C 5583.404622 661.085706 5579.229584 660.840212 5588.889476 645.455919 C 5588.725749 645.374088 5577.919768 639.973219 5577.101133 639.973219 C 5560.564708 640.546039 5559.9098 647.256209 5560.400981 663.704309 Z M 6174.377175 2792.383034 C 6163.24374 2795.656288 6165.454054 2793.692336 6157.185841 2798.684048 C 6168.892321 2813.659183 6172.16686 2815.050316 6198.281314 2814.886654 C 6184.200794 2796.801927 6188.539559 2810.38593 6174.377175 2792.383034 Z M 6376.989319 2774.789296 C 6403.840544 2771.761536 6387.304119 2780.681152 6399.829233 2762.514594 L 6389.023252 2750.07623 C 6373.387325 2762.514594 6376.252547 2749.585242 6376.989319 2774.789296 Z M 1796.317594 908.216362 C 1790.341559 888.249514 1790.341559 887.185707 1766.601147 885.876405 C 1772.659045 906.252409 1773.313953 903.551975 1796.317594 908.216362 Z M 6428.317728 2744.266205 C 6448.619875 2738.128854 6446.000243 2737.556034 6450.584598 2714.561427 C 6430.609906 2720.535115 6429.545681 2720.535115 6428.317728 2744.266205 Z M 1961.354395 996.185055 C 1983.048221 1013.287806 1990.170345 989.556717 1990.170345 989.556717 C 1980.346726 981.782739 1963.400983 981.537245 1961.354395 996.185055 Z M 6994.567506 1485.945643 C 7004.309262 1478.41716 7004.96417 1484.390848 7002.835719 1471.379664 C 6999.643043 1452.23113 6997.842046 1458.286649 6987.772836 1451.330985 C 6988.509608 1474.898412 6986.381157 1469.988531 6994.567506 1485.945643 Z M 3774.712618 1493.883284 C 3793.377495 1488.318752 3798.289304 1483.081546 3802.791796 1464.096675 C 3779.624428 1471.052339 3784.208783 1474.571087 3774.712618 1493.883284 Z M 1694.397546 992.502645 C 1721.739953 991.111512 1717.319324 997.739851 1722.886042 974.254255 C 1701.928988 976.627364 1702.010851 977.363847 1694.397546 992.502645 Z M 6390.496795 2838.208586 L 6390.087477 2826.670367 L 6355.377357 2827.652343 C 6358.815623 2830.51644 6353.330769 2832.31673 6369.212287 2836.817454 C 6379.281496 2839.599719 6380.181995 2838.290418 6390.414931 2838.208586 Z M 6708.290873 3385.823934 C 6708.127146 3386.314922 6686.351457 3393.352417 6726.218978 3402.68119 C 6714.348771 3363.07482 6709.027644 3385.57844 6708.290873 3385.823934 Z M 6251.656312 2656.624836 C 6265.000061 2659.325271 6265.163788 2660.798235 6280.799715 2661.616548 C 6277.443312 2650.078329 6279.735489 2646.805075 6268.929508 2645.986762 C 6262.216702 2645.413942 6255.340169 2651.469462 6251.656312 2656.706668 Z M 5769.480341 2636.085169 C 5763.504306 2613.417887 5766.123937 2612.599574 5745.412474 2607.771524 C 5751.061055 2626.674565 5754.417458 2626.592733 5769.480341 2636.085169 Z M 6513.373897 908.298193 L 6513.046443 896.759974 L 6489.879075 890.868117 C 6495.85511 912.38976 6490.69771 907.070723 6513.373897 908.298193 Z M 6432.57463 922.291353 L 6404.004271 892.832069 C 6408.997944 918.036123 6406.869493 920.90022 6432.57463 922.291353 Z M 1808.924572 942.749188 C 1796.072004 926.219257 1809.415753 931.783788 1779.617442 931.947451 C 1790.750877 946.349768 1792.961191 949.868515 1808.924572 942.749188 Z M 6278.261947 2771.925199 L 6301.511178 2771.270548 L 6301.101861 2759.650497 L 6277.934493 2760.305148 Z M 6687.743136 1703.86251 C 6715.331133 1700.016437 6697.730482 1711.554656 6710.419324 1685.777783 C 6689.871587 1691.178652 6691.426993 1687.496241 6687.743136 1703.86251 Z M 827.954341 1517.041554 L 851.12171 1516.386903 C 843.672132 1505.83066 827.872478 1488.564246 827.954341 1517.041554 Z M 6910.821153 2776.425922 C 6910.002518 2778.553537 6897.722995 2774.298307 6912.294696 2786.900334 C 6922.527633 2795.738119 6933.00616 2787.309491 6921.381544 2777.326067 C 6906.646115 2764.560378 6914.25942 2774.789296 6910.821153 2776.425922 Z M 5739.518302 2602.125162 C 5733.460404 2582.076483 5736.898671 2589.19581 5721.42647 2579.45788 C 5723.964239 2602.125162 5718.397521 2597.215281 5739.518302 2602.125162 Z M 6627.409742 3394.007068 C 6635.268637 3398.180467 6633.876958 3397.034828 6644.92853 3399.326105 L 6644.437349 3381.896029 C 6634.286276 3384.678295 6628.883285 3383.123499 6627.409742 3394.007068 Z M 7011.840703 1479.64463 L 7029.195764 1479.07181 C 7024.693271 1462.296385 7029.686944 1470.725013 7017.079967 1462.050891 C 7013.314246 1469.252049 7011.513249 1468.433736 7011.840703 1479.64463 Z M 6401.712093 859.36305 L 6413.254846 859.035725 L 6412.763665 841.68748 L 6401.220912 842.014805 L 6401.712093 859.444881 Z M 5662.484756 821.966126 L 5686.96194 822.457114 C 5682.377585 814.764968 5683.605537 816.156101 5680.658451 805.190701 L 5662.484756 821.884295 Z M 6304.867582 2689.930193 C 6299.710182 2672.581948 6304.540128 2677.164503 6286.939477 2672.991105 C 6292.015013 2689.76653 6287.430658 2686.247782 6304.867582 2689.930193 Z M 6789.172003 1602.227982 L 6800.796619 1601.900656 L 6800.059848 1578.660555 C 6796.375991 1583.24311 6796.294127 1580.460844 6792.773997 1588.72581 C 6787.043553 1601.982488 6791.546045 1591.589907 6789.172003 1602.227982 Z M 6367.41129 2647.459726 L 6355.868537 2647.787051 C 6360.452893 2664.562477 6355.377357 2656.133848 6367.984334 2664.807971 Z M 6227.834035 2831.416585 L 6245.189096 2830.925597 C 6235.938521 2818.32357 6244.043007 2823.724439 6227.506581 2819.796534 Z M 2089.716352 1021.47094 L 2107.153276 1020.979952 C 2101.340968 1013.451469 2091.762939 1003.14072 2089.716352 1021.47094 Z M 5841.929531 2732.564323 C 5842.420712 2746.966639 5851.26197 2733.709961 5845.531525 2732.40066 C 5845.531525 2732.40066 5841.43835 2716.116223 5841.929531 2732.564323 Z M 1905.114176 1055.921936 L 1906.751446 1054.121646 C 1906.669582 1054.203478 1904.541132 1055.349116 1905.114176 1055.921936 Z M 1905.114176 1055.921936 " stroke="#b3b3b3" stroke-width="0.69" stroke-opacity="1" stroke-miterlimit="2.613"/><g clip-path="url(#7d6a740481)"><path fill="#999999" d="M 126.449219 206.542969 L 128.027344 207.410156 C 130.089844 205.355469 136.027344 202.15625 137.214844 199.902344 L 133.921875 197.261719 C 125.167969 190.171875 122.015625 178.097656 119.757812 167.203125 C 117.050781 154.152344 121.375 133.867188 125.6875 124.195312 C 128.179688 118.609375 131.089844 113.121094 134.652344 107.992188 C 137.320312 104.152344 139.789062 101.039062 143.132812 97.753906 C 143.859375 97.039062 143.9375 96.886719 144.78125 96.160156 L 153.578125 89.128906 C 162.371094 83.019531 170.25 80.738281 180.554688 78.246094 C 181.175781 104.632812 179.886719 131.34375 171.695312 153.285156 L 165.628906 168.070312 C 164.535156 170.589844 163.386719 172.679688 162.097656 174.964844 C 158.492188 181.367188 154.039062 188.726562 149.539062 194.070312 L 147.027344 196.972656 C 146.972656 197.023438 146.898438 197.097656 146.84375 197.152344 C 143.167969 200.863281 140.667969 203.867188 136.464844 207.269531 C 135.765625 207.835938 135.722656 207.910156 135.117188 208.441406 L 127.523438 214.132812 C 110.371094 225.9375 85.195312 232.394531 63.683594 234.164062 C 57.3125 234.6875 50.566406 235.105469 43.957031 235.585938 C 30.191406 236.589844 16.832031 234.695312 3.152344 234.722656 L 10.714844 235.988281 C 43.101562 239.164062 85.464844 244.714844 116.046875 233.933594 C 118.355469 233.117188 120.402344 232.335938 122.582031 231.476562 C 130.398438 228.398438 138.082031 223.125 144.046875 217.351562 L 146.230469 215.230469 C 146.28125 215.179688 146.359375 215.105469 146.414062 215.054688 L 146.769531 214.691406 C 147.089844 214.351562 146.902344 214.542969 147.277344 214.117188 C 151.589844 209.191406 154.535156 206.398438 158.285156 200.699219 C 158.949219 199.6875 159.570312 198.871094 160.167969 197.875 C 170.527344 180.507812 173.160156 173.832031 178.816406 153.980469 C 180.027344 149.726562 180.289062 145.304688 181.300781 141.011719 C 181.375 140.691406 181.425781 140.414062 181.539062 140.105469 L 182.191406 138.828125 C 182.152344 144.011719 181.746094 150.046875 181.402344 155.28125 C 181.058594 160.539062 180.917969 165.527344 180.835938 171.121094 L 180.441406 253.5 C 180.441406 259.003906 184.414062 262.910156 189.332031 259.8125 C 193.15625 257.40625 191.910156 251.679688 191.777344 246.078125 C 191.648438 240.734375 191.605469 235.179688 191.601562 229.753906 C 191.582031 207.898438 191.429688 186.105469 190.859375 164.285156 C 190.585938 153.816406 188.992188 143.425781 188.851562 132.964844 C 189.492188 134.125 191.714844 145.800781 192.125 148.332031 C 193.015625 153.800781 194.488281 158.453125 195.761719 163.445312 C 198.515625 174.246094 205.886719 189.035156 212.496094 198.144531 L 214.824219 201.570312 C 215.046875 201.84375 215.191406 202.003906 215.316406 202.148438 C 217.945312 205.226562 219.855469 208.421875 222.765625 211.230469 C 226.960938 215.285156 230.535156 218.738281 235.195312 222.191406 L 243.96875 227.78125 C 271.433594 243.195312 308.917969 241.164062 341.617188 238.210938 C 347.390625 237.691406 353.222656 237.199219 358.824219 236.429688 C 361.539062 236.054688 364.480469 236.007812 367.039062 235.433594 C 369.136719 234.960938 373.277344 234.460938 375.273438 234.214844 C 371.40625 234.113281 369.191406 234.710938 365.683594 234.847656 C 362.347656 234.976562 358.839844 235.097656 355.527344 235.296875 C 335.464844 236.507812 314.710938 235.207031 295.167969 232.359375 C 290.710938 231.710938 282.21875 229.703125 278.011719 228.265625 C 276.671875 227.808594 275.199219 227.429688 273.910156 226.992188 C 272.4375 226.492188 271.28125 226.011719 269.894531 225.605469 C 262.121094 223.332031 247.667969 216.148438 241.410156 210.9375 C 235.097656 205.675781 231.878906 203.507812 226.082031 197.117188 L 219.949219 189.570312 C 215.15625 183.546875 211.109375 176.390625 207.636719 169.492188 C 205.015625 164.28125 203.140625 160.101562 201.171875 154.417969 C 191.355469 126.097656 192.433594 107.601562 191.566406 77.945312 C 198.210938 78.980469 204.632812 81.058594 210.527344 83.863281 C 215.433594 86.203125 219.832031 89.132812 223.722656 92.644531 L 231.695312 100.503906 C 235.722656 105.085938 239.296875 109.792969 242.109375 115.304688 C 243.539062 118.105469 244.960938 120.769531 246.203125 123.769531 C 250.753906 134.777344 254.410156 152.320312 252.316406 166.730469 C 251.789062 170.34375 250.96875 173.742188 250.25 177.195312 C 249.523438 180.679688 248.15625 183.347656 246.789062 186.339844 C 245.519531 189.128906 243.683594 191.855469 241.914062 194.058594 L 237.710938 198.121094 C 237.542969 198.28125 237.3125 198.503906 237.140625 198.652344 C 236.433594 199.253906 236.136719 199.332031 235.339844 199.898438 L 245.953125 207.429688 C 246.855469 207.527344 246.964844 207 247.691406 205.949219 C 252.339844 199.199219 253.386719 198.730469 257.4375 190.542969 C 260.332031 184.6875 262.671875 174.375 263.269531 167.550781 C 264.058594 158.597656 263.582031 148.960938 262.207031 140.507812 C 259.824219 125.847656 256.910156 119.71875 250.683594 108.8125 C 250.164062 107.902344 250.03125 107.390625 249.441406 106.492188 L 243.464844 98.082031 C 240.082031 94.117188 239 92.492188 234.804688 88.746094 C 224.425781 79.484375 216.5 74.402344 203.199219 70.027344 C 200.050781 68.992188 194.835938 67.769531 191.488281 67.21875 C 191.636719 62.550781 191.609375 57.8125 191.574219 53.136719 C 191.535156 47.589844 192.738281 44.90625 186.273438 44.835938 C 179.976562 44.769531 180.753906 47.910156 180.769531 53.496094 C 180.78125 58.039062 180.785156 62.589844 180.785156 67.132812 C 174.96875 69.375 170.964844 68.617188 159.101562 74.15625 C 150.578125 78.136719 151.78125 78.160156 145.570312 82.191406 L 137.5625 88.585938 C 136.40625 89.550781 136.148438 90.539062 134.027344 92.238281 L 128.292969 98.730469 C 124.667969 103.167969 118.851562 113.214844 116.71875 118.0625 C 110.144531 133.019531 107.199219 146.628906 108.597656 166.804688 C 109.242188 176.078125 113.105469 187.324219 117.289062 194.105469 Z M 126.449219 206.542969 " fill-opacity="1" fill-rule="evenodd"/></g><path fill="#2b4866" d="M 126.503906 214.269531 C 125.925781 213.324219 122.695312 211.292969 120.671875 209.449219 L 117.46875 206.1875 C 117.417969 206.132812 117.34375 206.054688 117.296875 206.003906 L 115.542969 204.160156 C 113.621094 202.214844 112.460938 200.695312 110.71875 198.53125 C 102.816406 188.714844 96.320312 177.816406 91.816406 166.007812 C 88.007812 156.03125 85.621094 143.542969 85.234375 131.328125 C 84.871094 120.007812 87.003906 104.871094 90.527344 95.699219 C 91.035156 94.378906 91.351562 92.960938 91.914062 91.683594 C 97.304688 79.425781 103.109375 68.039062 112.625 58.4375 C 132.527344 38.355469 156.554688 26.902344 186.183594 26.632812 C 214.296875 26.375 237.203125 36.789062 254.953125 52.800781 C 255.007812 52.851562 255.085938 52.921875 255.144531 52.96875 C 255.199219 53.019531 255.277344 53.089844 255.332031 53.140625 L 256.871094 54.488281 C 257.707031 55.253906 258.242188 56.113281 259.292969 57.09375 C 262.65625 60.226562 268.71875 67.578125 271.128906 71.164062 C 276.757812 79.539062 283.113281 93.273438 285.1875 103.140625 C 289.238281 122.449219 289.160156 129.992188 286.308594 149.472656 C 284.546875 161.476562 277.996094 176.019531 271.730469 186.660156 C 267.945312 193.09375 263.632812 198.644531 258.703125 204.222656 C 255.027344 208.390625 249.058594 212.9375 247.902344 214.203125 C 247.984375 214.242188 248.105469 214.21875 248.136719 214.328125 L 248.597656 214.578125 C 250.03125 215.472656 252.585938 218.257812 255.21875 219.378906 C 258.191406 217.980469 265.886719 211.414062 269.144531 208.914062 C 274.539062 204.777344 282.917969 195.125 287.003906 189.742188 L 292.078125 182.230469 C 295.121094 177.03125 298.398438 171.480469 300.410156 165.757812 C 303.78125 156.15625 303.664062 157.457031 306.078125 146.972656 C 307.574219 140.460938 308.277344 131.164062 308.261719 124.125 C 308.234375 113.148438 306.40625 101.796875 303.6875 91.449219 C 302.851562 88.273438 301.507812 85.203125 300.46875 82.078125 C 299.535156 79.261719 295.703125 70.335938 293.992188 67.328125 C 291.003906 62.066406 286.4375 55.144531 282.75 50.523438 C 278.773438 45.542969 275.386719 42.167969 270.765625 37.703125 L 267.632812 34.742188 C 263.433594 30.828125 258.515625 27.195312 253.636719 23.917969 C 252.351562 23.058594 251.285156 22.492188 249.847656 21.589844 C 243.136719 17.359375 231.277344 12.167969 224.519531 9.894531 C 198.570312 1.152344 166.308594 2.3125 140.546875 13.046875 C 132.453125 16.421875 125.582031 20.128906 118.605469 24.886719 L 100.828125 39.453125 C 100.777344 39.503906 100.695312 39.574219 100.644531 39.625 C 96.574219 43.585938 95.050781 45.238281 91.230469 49.992188 C 77.414062 67.175781 67.695312 89.105469 66.042969 111.523438 C 65.4375 119.710938 64.910156 126.679688 65.910156 135.113281 C 67.097656 145.125 68.933594 155.882812 73.074219 164.984375 C 76.660156 172.867188 77.535156 175.371094 82.304688 182.71875 C 85.941406 188.320312 87.339844 190.570312 91.910156 195.773438 C 94 198.15625 95.886719 200.234375 97.9375 202.328125 L 106.105469 209.996094 C 106.160156 210.042969 106.246094 210.109375 106.300781 210.15625 L 111.175781 213.886719 C 111.859375 214.394531 118.238281 218.519531 118.722656 218.644531 C 120.667969 219.152344 125.230469 215.019531 126.5 214.269531 Z M 126.503906 214.269531 " fill-opacity="1" fill-rule="evenodd"/><g clip-path="url(#3484a887b6)"><path stroke-linecap="butt" transform="matrix(0.0477166, 0, 0, 0.0477354, -9.503285, 3.911575)" fill="none" stroke-linejoin="miter" d="M 2850.310061 4406.751769 C 2838.194264 4386.948584 2770.493155 4344.396286 2728.087866 4305.771892 L 2660.959802 4237.44272 C 2659.895577 4236.297082 2658.340171 4234.660455 2657.357809 4233.596647 L 2620.601101 4194.972253 C 2580.324262 4154.220245 2556.010805 4122.387852 2519.499687 4077.053288 C 2353.889842 3871.411123 2217.750854 3643.101676 2123.362247 3395.725526 C 2043.545342 3186.728276 1993.526748 2925.113473 1985.422262 2669.226863 C 1977.808957 2432.079631 2022.506424 2114.983177 2096.347294 1922.843184 C 2106.989549 1895.18419 2113.620491 1865.479412 2125.408834 1838.720563 C 2238.380454 1581.933809 2360.029604 1343.395444 2559.449072 1142.254003 C 2976.543566 721.559068 3480.085909 481.629571 4101.020499 475.983208 C 4690.192055 470.582339 5170.239575 688.7447 5542.227285 1024.171375 C 5543.373374 1025.235182 5545.010644 1026.708146 5546.238596 1027.690122 C 5547.384685 1028.75393 5549.021955 1030.226894 5550.168044 1031.290702 L 5582.42226 1059.522515 C 5599.941048 1075.561458 5611.156346 1093.564354 5633.177625 1114.104021 C 5703.662093 1179.732758 5830.714233 1333.739345 5881.224008 1408.860518 C 5999.189301 1584.306918 6132.381203 1872.02592 6175.850717 2078.731892 C 6260.743159 2483.22422 6259.105889 2641.240544 6199.34554 3049.333451 C 6162.425105 3300.801168 6025.140028 3605.459258 5893.830986 3828.367837 C 5814.505261 3963.144059 5724.127966 4079.426397 5620.816238 4196.281555 C 5543.782692 4283.595598 5418.695275 4378.847281 5394.463681 4405.360636 C 5396.182815 4406.17895 5398.720583 4405.687962 5399.375491 4407.979239 L 5409.035383 4413.216445 C 5439.079285 4431.955823 5492.618009 4490.30157 5547.794003 4513.787166 C 5610.092121 4484.491545 5771.363201 4346.933057 5839.637354 4294.560998 C 5952.690837 4207.901606 6128.288028 4005.696357 6213.917241 3892.932766 L 6320.257918 3735.571094 C 6384.029579 3626.653576 6452.713049 3510.371238 6494.872748 3390.48832 C 6565.520942 3189.346879 6563.065037 3216.596716 6613.656675 2996.961392 C 6645.010393 2860.548543 6659.745822 2665.789947 6659.418368 2518.329867 C 6658.845323 2288.383793 6620.533209 2050.58191 6563.556218 1833.810682 C 6546.037431 1767.281801 6517.876389 1702.962365 6496.1007 1637.497291 C 6476.535325 1578.496892 6396.227239 1391.512273 6360.37103 1328.502139 C 6297.745458 1218.27532 6202.047035 1073.270181 6124.767898 976.463702 C 6041.430863 872.128739 5970.455215 801.426459 5873.610703 707.893234 L 5807.956182 645.865076 C 5719.952928 563.87007 5616.88679 487.766921 5514.639288 419.110425 C 5487.706199 401.107529 5465.357466 389.241984 5435.231701 370.338944 C 5294.59022 281.7156 5046.052657 172.961745 4904.428815 125.335903 C 4360.609634 -57.802642 3684.499049 -33.498734 3144.609316 191.373797 C 2974.98816 262.076077 2830.990276 339.734022 2684.782079 439.404598 L 2312.221324 744.553676 C 2311.157099 745.617483 2309.437966 747.090447 2308.37374 748.154255 C 2223.071981 831.131237 2191.145219 865.745895 2111.082723 965.334639 C 1821.53155 1325.310717 1617.855181 1784.711877 1583.226923 2254.341954 C 1570.538082 2425.860449 1559.486511 2571.847565 1580.443565 2748.521434 C 1605.330066 2958.255167 1643.805908 3183.618685 1730.58121 3374.285714 C 1805.731896 3539.421365 1824.069318 3591.875255 1924.024643 3745.800012 C 2000.239554 3863.146157 2029.546685 3910.281011 2125.326971 4019.28036 C 2169.123939 4069.197479 2208.664006 4112.731754 2251.64234 4156.593353 L 2422.818903 4317.22828 C 2423.964992 4318.210256 2425.765988 4319.601389 2426.912077 4320.583365 L 2529.077716 4398.732297 C 2543.403827 4409.370372 2677.08691 4495.78427 2687.237984 4498.402873 C 2728.006003 4509.040948 2823.622562 4422.463387 2850.228197 4406.751769 Z M 2850.310061 4406.751769 " stroke="#f8fafb" stroke-width="6.96" stroke-opacity="1" stroke-miterlimit="2.613"/></g></svg>